<svg xmlns="http://www.w3.org/2000/svg" width="512" height="512" viewBox="0 0 512 512"><clipPath id="a"><path d="M0 0h512v512H0z"/></clipPath><g fill="#537796" clip-path="url(#a)"><path d="M439.449 355.525a4.707 4.707 0 0 0 3.771-7.043l-11.752-20.423 15.539-17.716a4.71 4.71 0 0 0-2.315-7.649l-22.754-6.13-1.537-23.513a4.7 4.7 0 0 0-7.043-3.771l-20.428 11.752-17.713-15.539a4.707 4.707 0 0 0-7.649 2.312l-6.13 22.757-23.513 1.537a4.707 4.707 0 0 0-3.771 7.043l11.752 20.426-15.538 17.714a4.707 4.707 0 0 0 2.315 7.65l22.751 6.127 1.54 23.517a4.7 4.7 0 0 0 7.043 3.771l17.192-9.895 33.628 111.142 14.293-22.108 24.153 10.475-33.627-111.144zm-74.842-8.442a4.707 4.707 0 0 0-3.473-4.235l-18.707-5.042 12.778-14.563a4.707 4.707 0 0 0 .54-5.449L346.082 301l19.335-1.268a4.712 4.712 0 0 0 4.238-3.473l5.038-18.714 14.564 12.787a4.7 4.7 0 0 0 5.449.536l16.794-9.663 1.264 19.335a4.708 4.708 0 0 0 3.47 4.235l18.714 5.042-12.779 14.565a4.707 4.707 0 0 0-.54 5.449l9.663 16.794-19.332 1.264a4.712 4.712 0 0 0-4.238 3.473l-5.038 18.71-14.567-12.781a4.706 4.706 0 0 0-5.449-.54l-16.8 9.669z"/><circle cx="23.367" cy="23.367" r="23.367" transform="rotate(-61.85 456.63 -131.288)"/><path d="M211.301 241.81h61.217q-9.2-2.833-17.948-6.275h-43.269a3.138 3.138 0 000 6.275zM210.609 212.342h-89.221a3.137 3.137 0 000 6.274h98.821q-4.983-3.04-9.6-6.274zM119.126 177.773h57.653a64.917 64.917 0 01-3.211-6.279h-54.442a3.137 3.137 0 000 6.274zM170.8 140.396l.013-.047.016-.044.439-1.449H92.78a3.137 3.137 0 100 6.274h76.58z"/><path d="M291.906 386.103h-25.547v-48.942a4.708 4.708 0 0 0-4.708-4.7h-24.3a4.546 4.546 0 0 0-.947-.173c-.555-.185-7.7-3.14-7.7-28.354 0-24.815 6.933-30.82 8.376-31.824h46.654a4.708 4.708 0 0 0 4.706-4.706v-21.268a250.607 250.607 0 0 1-9.412-2.441v1.289h-131.29a3.137 3.137 0 0 0 0 6.274h131.293v11.438H87.18a30.083 30.083 0 1 1 0-60.166h110.848a137.48 137.48 0 0 1-3.112-2.773 112.145 112.145 0 0 1-10.052-10.547h-126.3a30.083 30.083 0 1 1 0-60.166h115.687l2.864-9.412H58.569a39.494 39.494 0 0 0 0 78.989h8.6a39.387 39.387 0 0 0-5.518 64.075H39.494a39.467 39.467 0 0 0-25.311 69.772 4.7 4.7 0 0 0-4.621 4.7v49.822a4.708 4.708 0 0 0 4.706 4.706h32.941c-12.888 6.9-21.565 19.495-21.565 33.9 0 21.775 19.755 39.495 44.037 39.495h222.225a4.708 4.708 0 0 0 4.706-4.706v-69.576a4.708 4.708 0 0 0-4.706-4.706zM39.494 332.275a30.083 30.083 0 1 1 0-60.166h185.718a43.251 43.251 0 0 0-3.6 9.81H73.706a3.137 3.137 0 1 0 0 6.274h146.656a105.872 105.872 0 0 0-1.067 15.739c0 .411.019.775.022 1.18h-55.7a3.137 3.137 0 1 0 0 6.274h55.921c.069 1.092.147 2.158.245 3.172H100.051a3.137 3.137 0 1 0 0 6.274h120.57a43.109 43.109 0 0 0 3.526 11.441zm247.706 73.05H108.357a3.137 3.137 0 1 0 0 6.274H287.2v16.916h-77.185a3.137 3.137 0 1 0 0 6.274H287.2v3.172H138.151a3.137 3.137 0 0 0 0 6.274H287.2v11.446H69.681c-19.093 0-34.626-13.5-34.626-30.083s15.532-30.083 34.626-30.083H287.2z"/><path d="M404.5 211.486l14.183-46.591-121.376 1.431-101.633-69.948-14.359 47.171c-9.082 29.838 33.515 69.235 95.146 88s118.957 9.775 128.039-20.063z"/><path d="M511.982 152.811L337.893 33l-211.311 2.494 174.081 119.812zM501.717 163.671a12.846 12.846 0 00-10.651 22.61L464.651 292.26l20.185 4.166 17.713-107.773a12.848 12.848 0 00-.831-24.982z"/></g></svg>