<svg xmlns="http://www.w3.org/2000/svg" width="512" height="512" viewBox="0 0 512 512"><path fill="#f39f37" d="M304 88h184v400H304z"/><path d="M488 496h-96v-16h88V312h16v176a8 8 0 01-8 8zM496 296h-16V96H352V80h136a8 8 0 018 8z"/><rect width="304" height="432" x="24" y="56" fill="#fdbf44" rx="10"/><path fill="#fffcf8" d="M296 448v8H56V88h240v200"/><path fill="#fa5131" d="M206.992 48a32.011 32.011 0 0 0-61.984 0H88v54a10 10 0 0 0 10 10h156a10 10 0 0 0 10-10V48z"/><path d="M318 48h-46a8 8 0 0 0-8-8h-51.325a40.022 40.022 0 0 0-73.35 0H88a8 8 0 0 0-8 8H34a18.021 18.021 0 0 0-18 18v54h16V66a2 2 0 0 1 2-2h46v16H56a8 8 0 0 0-8 8v368a8 8 0 0 0 8 8h224v-16H64V96h16v6a18.021 18.021 0 0 0 18 18h156a18.021 18.021 0 0 0 18-18v-6h16v168h16V88a8 8 0 0 0-8-8h-24V64h46a2 2 0 0 1 2 2v182h16V66a18.021 18.021 0 0 0-18-18zm-62 54a2 2 0 0 1-2 2H98a2 2 0 0 1-2-2V56h49.008a8 8 0 0 0 7.748-6.006 24.01 24.01 0 0 1 46.488 0A8 8 0 0 0 206.992 56H256z"/><path d="M80 320h96v16H80zM192 320h32v16h-32zM80 360h48v16H80zM144 360h88v16h-88zM80 400h96v16H80zM192 400h48v16h-48z"/><circle cx="176" cy="216" r="48" fill="#fa5131"/><path d="M256 232v-32h-16v8h-8.57a55.716 55.716 0 0 0-10.6-25.52l6.079-6.078 5.657 5.657 11.313-11.314-22.627-22.627-11.314 11.313 5.657 5.657-6.078 6.079A55.716 55.716 0 0 0 184 160.57V152h8v-16h-32v16h8v8.57a55.716 55.716 0 0 0-25.52 10.6l-6.078-6.079 5.657-5.657-11.314-11.313-22.627 22.627 11.313 11.314 5.657-5.657 6.079 6.078A55.716 55.716 0 0 0 120.57 208H112v-8H96v32h16v-8h8.57a55.716 55.716 0 0 0 10.6 25.52l-6.079 6.078-5.657-5.657-11.313 11.314 22.627 22.627 11.314-11.313-5.657-5.657 6.078-6.079A55.716 55.716 0 0 0 168 271.43V280h-8v16h32v-16h-8v-8.57a55.716 55.716 0 0 0 25.52-10.6l6.078 6.079-5.657 5.657 11.314 11.313 22.627-22.627-11.313-11.314-5.657 5.657-6.079-6.078A55.716 55.716 0 0 0 231.43 224H240v8zm-80 24a40 40 0 1 1 40-40 40.045 40.045 0 0 1-40 40z"/><path d="M152 208h16v16h-16zM176 192h16v16h-16zM176 224h16v16h-16zM112 72h16v16h-16zM224 72h16v16h-16zM168 48h16v16h-16z"/><path fill="#25b1fa" d="M320.569 465.469c-33.772-24.311-56.437-59.541-63.819-99.2l-.074-.427-9.2-57.112 104.393-45.5 104.395 45.5-9.315 57.685-.039.212c-7.454 40.015-30.413 75.451-64.65 99.779L351.868 488z"/><path d="M459.457 301.4l-104.4-45.5a8.012 8.012 0 0 0-6.393 0l-104.388 45.5a8 8 0 0 0-4.7 8.607l9.218 57.2.074.427c.006.035.012.069.019.1 7.761 41.695 31.559 78.711 67.011 104.229l4.1 2.955V478a2 2 0 0 1-2 2H34a2 2 0 0 1-2-2V136H16v342a18.021 18.021 0 0 0 18 18h284a18.027 18.027 0 0 0 16.446-10.685l12.748 9.178a8 8 0 0 0 9.307.028l30.389-21.592c35.938-25.537 60.045-62.769 67.882-104.848l.04-.211c.011-.06.021-.119.03-.179l9.316-57.685a8 8 0 0 0-4.701-8.606zm-20.395 63.654l-.021.112c-7.071 37.964-28.883 71.6-61.418 94.723L351.9 478.165l-26.655-19.189c-32.079-23.092-53.606-56.519-60.62-94.125l-8.266-51.268 95.508-41.624 95.508 41.625z"/><path fill="#fafeff" d="M408 352h-40v-40h-32v40h-40v32h40v40h32v-40h40z"/><path d="M368 432h-32a8 8 0 01-8-8v-32h-32a8 8 0 01-8-8v-32a8 8 0 018-8h32v-32a8 8 0 018-8h32a8 8 0 018 8v32h32a8 8 0 018 8v32a8 8 0 01-8 8h-32v32a8 8 0 01-8 8zm-24-16h16v-32a8 8 0 018-8h32v-16h-32a8 8 0 01-8-8v-32h-16v32a8 8 0 01-8 8h-32v16h32a8 8 0 018 8zM352 120h112v16H352zM352 160h64v16h-64zM432 160h32v16h-32zM400 200h64v16h-64zM352 200h32v16h-32zM392 240h72v16h-72z"/></svg>