<svg xmlns="http://www.w3.org/2000/svg" width="512" height="512" viewBox="0 0 512 512"><path fill="#99daff" d="M256 15C122.9 15 15 122.899 15 256h482c0-133.101-107.9-241-241-241z"/><path fill="#53acf5" d="M497 256c0-133.101-107.899-241-241-241v241z"/><path fill="#4793ff" d="M437.02 74.98C388.667 26.629 324.38 0 256 0S123.333 26.629 74.98 74.98C26.629 123.333 0 187.62 0 256h512c0-68.38-26.629-132.667-74.98-181.02zM120.731 241H30.492a224.346 224.346 0 0 1 25.696-90.5h76.001c-6.611 28.252-10.518 58.843-11.458 90.5zM75.254 120.5c26.271-34.955 62.424-62.073 104.278-77.169-7.978 10.182-15.407 22.052-22.156 35.548-6.415 12.83-12.045 26.785-16.858 41.621zM241 241h-90.257c1.003-31.981 5.205-62.651 12.299-90.5H241zm0-120.5h-68.794c3.589-9.943 7.591-19.38 12.004-28.205 15.96-31.92 36.062-52.854 56.79-59.771zm30-87.976c20.728 6.917 40.83 27.851 56.79 59.771 4.412 8.824 8.415 18.262 12.004 28.205H271zM271 241v-90.5h77.958c7.094 27.849 11.296 58.519 12.299 90.5zm83.623-162.121c-6.748-13.496-14.177-25.366-22.155-35.548 41.854 15.096 78.007 42.214 104.278 77.169h-65.265c-4.813-14.836-10.443-28.791-16.858-41.621zm25.188 71.621h76.001a224.346 224.346 0 0 1 25.696 90.5h-90.239c-.94-31.657-4.847-62.248-11.458-90.5z"/><path fill="#424fdd" d="M256 0v256h256c0-68.38-26.629-132.667-74.98-181.02C388.667 26.629 324.38 0 256 0zm15 32.524c20.728 6.917 40.83 27.851 56.79 59.771 4.412 8.824 8.415 18.262 12.004 28.205H271zM271 241v-90.5h77.958c7.094 27.849 11.296 58.519 12.299 90.5zm83.623-162.121c-6.748-13.496-14.177-25.366-22.155-35.548 41.854 15.096 78.007 42.214 104.278 77.169h-65.265c-4.813-14.836-10.443-28.791-16.858-41.621zM481.508 241h-90.239c-.94-31.657-4.846-62.248-11.458-90.5h76.001a224.346 224.346 0 0 1 25.696 90.5z"/><path fill="#ebfaff" d="M497 512H15c-8.284 0-15-6.716-15-15V256c0-8.284 6.716-15 15-15h482c8.284 0 15 6.716 15 15v241c0 8.284-6.716 15-15 15z"/><path fill="#c3e6ff" d="M497 241H256v271h241c8.284 0 15-6.716 15-15V256c0-8.284-6.716-15-15-15z"/><path fill="#ffea98" d="M30 271h452v211H30z"/><path fill="#ffb454" d="M256 271h226v211H256z"/><g fill="#5e54ac"><path d="M146.191 330.879c-.066-6.863-5.649-12.379-12.497-12.379h-.123c-6.903.067-12.446 5.717-12.379 12.62l.491 50.768-39.931-57.823a12.499 12.499 0 00-22.786 7.103V421c0 6.903 5.597 12.5 12.5 12.5 6.904 0 12.5-5.597 12.5-12.5v-49.733l37.958 54.965c3.624 5.234 9.687 7.454 15.449 5.655 5.869-1.833 9.66-7.297 9.66-13.919v-.121zM214.961 343.5c6.903 0 12.5-5.597 12.5-12.5s-5.597-12.5-12.5-12.5h-37.922c-6.904 0-12.5 5.597-12.5 12.5v90c0 6.903 5.596 12.5 12.5 12.5h37.922c6.903 0 12.5-5.597 12.5-12.5s-5.597-12.5-12.5-12.5h-25.422v-20h22.626c6.903 0 12.5-5.596 12.5-12.5s-5.597-12.5-12.5-12.5h-22.626v-20zM354.192 318.906c-6.772-1.344-13.353 3.048-14.7 9.82l-9.464 47.552-15.082-48.958c-2.033-6.597-9.029-10.3-15.626-8.266-4.443 1.369-7.563 4.992-8.513 9.225l-14.86 48.01-9.438-47.714c-1.34-6.773-7.918-11.177-14.688-9.837-6.772 1.339-11.177 7.916-9.837 14.688l17.534 88.648c.119.599.281 1.188.485 1.764a14.544 14.544 0 0013.691 9.663h.102a14.542 14.542 0 0013.763-10.181l15.436-49.869 15.366 49.879a14.543 14.543 0 0013.859 10.171h.098c6.181-.042 11.67-4 13.66-9.852a12.56 12.56 0 00.426-1.585l17.605-88.457c1.35-6.772-3.046-13.354-9.817-14.701z"/></g><g fill="#453d81"><path d="M354.192 318.906c-6.772-1.344-13.353 3.048-14.7 9.82l-9.464 47.552-15.082-48.958c-2.033-6.597-9.029-10.3-15.626-8.266-4.443 1.369-7.563 4.992-8.513 9.225l-14.86 48.01-9.438-47.714c-1.059-5.355-5.396-9.215-10.51-9.941v85.646l3.52 17.794c.119.599.281 1.188.485 1.764a14.544 14.544 0 0013.691 9.663h.102a14.542 14.542 0 0013.763-10.181l15.436-49.869 15.366 49.879a14.543 14.543 0 0013.859 10.171h.098c6.181-.042 11.67-4 13.66-9.852a12.56 12.56 0 00.426-1.585l17.605-88.457c1.349-6.772-3.047-13.354-9.818-14.701zM427.281 364.982c-10.839-3.998-20.945-8.348-24.271-9.801-1.829-1.571-1.762-3.705-1.632-4.606.193-1.351 1.194-4.659 6.281-6.191 12.136-3.657 23.514 5.413 23.626 5.504l-.08-.066.011-.013a12.453 12.453 0 008.052 2.944c6.904 0 12.5-5.597 12.5-12.5 0-4.005-1.891-7.561-4.82-9.849-2.894-2.312-22.7-17.13-46.499-9.958-12.896 3.885-22.021 14.068-23.816 26.576-1.689 11.767 3.412 23.086 13.313 29.542.553.36 1.132.676 1.734.944.522.233 12.953 5.767 26.949 10.929 2.849 1.051 12.061 4.939 11.003 10.86-.808 4.523-6.449 9.203-14.491 9.203-8.599 0-16.86-3.452-22.101-9.234-4.637-5.115-12.54-5.505-17.656-.869s-5.505 12.541-.869 17.656c10.048 11.088 24.855 17.447 40.626 17.447 19.573 0 36.018-12.536 39.102-29.808 2.329-13.047-3.531-30.067-26.962-38.71z"/></g></svg>