<svg xmlns="http://www.w3.org/2000/svg" width="512" height="512" viewBox="0 0 512 512"><clipPath id="a"><path d="M0 0h512v512H0z"/></clipPath><g fill="#537796" clip-path="url(#a)"><path d="M12.19 105.195l87.375-83.006h285.476v124.23h12.19V10H94.696l-94.7 89.964v400.781h119.37v-12.19H12.19zM507.429 328.531h-89.213a4.573 4.573 0 00-4.571 4.571c0 24.849 22.063 45.065 49.179 45.065S512 357.951 512 333.102a4.573 4.573 0 00-4.571-4.571z"/><path d="M193.549 378.167c27.113 0 49.176-20.216 49.176-45.065a4.573 4.573 0 0 0-4.571-4.571h-89.216a4.573 4.573 0 0 0-4.571 4.571c0 24.849 22.06 45.065 49.182 45.065z"/><path d="M489.263 481.481h-52.421v-3.7a13.355 13.355 0 00-13.357-13.357h-34.561v-8.216a13.355 13.355 0 00-13.357-13.357h-35.743V197.894a25.285 25.285 0 0013.311-18.385h103.969l-43.246 136.978a4.568 4.568 0 004.358 5.945h89.213a4.571 4.571 0 004.361-5.945l-43.246-136.978h39.2v-12.19H352.136a25.283 25.283 0 00-47.905 0h-155.61v12.19h39.2l-43.244 136.978a4.571 4.571 0 004.361 5.945h89.211a4.568 4.568 0 004.358-5.945l-43.241-136.978h103.965a25.293 25.293 0 0013.311 18.385v244.963h-35.743a13.355 13.355 0 00-13.357 13.357v8.216h-34.56a13.355 13.355 0 00-13.357 13.351v3.7h-52.421a13.355 13.355 0 00-13.355 13.355v6.317H502.62v-6.317a13.356 13.356 0 00-13.357-13.355zM424.449 313.29l38.37-121.534 38.367 121.534zm-269.278 0l38.378-121.533 38.367 121.534zM91.036 94.35H39.101l-12.19 12.19h70.225a6.1 6.1 0 006.095-6.095V33.734l-12.195 12.19z"/></g></svg>