<svg xmlns="http://www.w3.org/2000/svg" width="512" height="512" viewBox="0 0 512.021 512.021"><path fill="#fff" fill-rule="evenodd" d="M443.714 303.57L295.065 154.888l-39.062 37.702-39.033-37.702L68.293 303.57v170.112c0 10.262 8.391 18.681 18.652 18.738h46.743V381.723c0-28.517 17.887-39.346 32.74-45.724-6.548-6.973-10.545-16.328-10.545-26.646 0-21.516 17.433-38.978 38.948-38.978 21.543 0 38.976 17.462 38.976 38.978 0 10.318-3.997 19.673-10.545 26.646 12.076 5.188 26.136 13.295 31.011 31.465.567-.057 1.162-.057 1.729-.057.595 0 1.191 0 1.758.057 4.847-18.171 18.907-26.278 30.983-31.465-6.548-6.973-10.545-16.328-10.545-26.646 0-21.516 17.461-38.978 38.976-38.978s38.977 17.462 38.977 38.978c0 10.318-4.025 19.673-10.545 26.646 14.854 6.378 32.74 17.207 32.74 45.724V492.42h46.743c10.261-.057 18.624-8.476 18.624-18.738V303.57z" clip-rule="evenodd"/><path fill="#ff7b79" fill-rule="evenodd" d="M339.541 111.971c21.26-20.523 21.884-54.739 1.361-75.999-20.551-21.289-54.737-21.884-75.997-1.361l-8.901 8.561-8.872-8.561c-21.288-20.523-55.474-19.928-75.997 1.361-20.523 21.26-19.928 55.476 1.332 75.999l5.499 5.301 39.005 37.617 39.033 37.702 39.062-37.702 38.976-37.617z" clip-rule="evenodd"/><path fill="#ffe6b4" fill-rule="evenodd" d="M494.114 277.32L334.042 117.272l-38.976 37.617L443.714 303.57l12.076 12.076c10.545 10.545 27.78 10.545 38.325 0 10.544-10.545 10.516-27.78-.001-38.326zM68.293 303.57L216.97 154.888l-39.005-37.617L17.921 277.32c-5.272 5.244-7.88 12.161-7.909 19.078v.17c.028 6.917 2.636 13.833 7.909 19.078 10.517 10.545 27.78 10.545 38.325 0z" clip-rule="evenodd"/><path fill="#ffdcd5" fill-rule="evenodd" d="M233.808 309.353c0-21.516-17.433-38.978-38.976-38.978-21.515 0-38.948 17.462-38.948 38.978 0 10.318 3.997 19.673 10.545 26.646a38.742 38.742 0 0 0 28.403 12.331 38.76 38.76 0 0 0 28.432-12.331c6.547-6.973 10.544-16.328 10.544-26.646z" clip-rule="evenodd"/><path fill="#ff7b79" fill-rule="evenodd" d="M254.274 367.465c-4.876-18.171-18.935-26.278-31.011-31.465a38.758 38.758 0 0 1-28.432 12.331A38.74 38.74 0 0 1 166.428 336c-14.854 6.378-32.74 17.207-32.74 45.724V492.42h76.649v-41.869c0-21.317 13.351-29.368 24.435-34.158-4.876-5.188-7.852-12.189-7.852-19.9 0-15.478 12.076-28.15 27.354-29.028z" clip-rule="evenodd"/><path fill="#ffdcd5" fill-rule="evenodd" d="M356.152 309.353c0-21.516-17.461-38.978-38.977-38.978-21.515 0-38.976 17.462-38.976 38.978 0 10.318 3.997 19.673 10.545 26.646 7.115 7.597 17.206 12.331 28.432 12.331 11.225 0 21.317-4.734 28.432-12.331 6.519-6.973 10.544-16.328 10.544-26.646z" clip-rule="evenodd"/><path fill="#a0c8ff" fill-rule="evenodd" d="M378.347 381.723c0-28.517-17.887-39.346-32.74-45.724-7.115 7.597-17.206 12.331-28.432 12.331-11.225 0-21.317-4.734-28.432-12.331-12.076 5.188-26.135 13.295-30.983 31.465 15.25.879 27.354 13.55 27.354 29.028 0 7.71-3.005 14.712-7.88 19.9 11.112 4.791 24.463 12.841 24.463 34.158v41.869h76.649V381.723z" clip-rule="evenodd"/><path fill="#ffdcd5" fill-rule="evenodd" d="M285.115 396.492c0-15.478-12.104-28.149-27.354-29.056-.567-.028-1.162-.028-1.758-.028-.567 0-1.162 0-1.729.028-15.279.907-27.354 13.578-27.354 29.056 0 7.71 2.976 14.712 7.852 19.9 5.329 5.669 12.869 9.213 21.232 9.213 8.391 0 15.931-3.543 21.232-9.213a28.971 28.971 0 0 0 7.879-19.9z" clip-rule="evenodd"/><path fill="#ffcd69" fill-rule="evenodd" d="M301.698 450.551c0-21.317-13.351-29.368-24.463-34.158-5.301 5.669-12.841 9.213-21.232 9.213-8.362 0-15.902-3.543-21.232-9.213-11.083 4.791-24.435 12.841-24.435 34.158v41.869h91.361v-41.869z" clip-rule="evenodd"/><path d="M501.183 270.248l-56.324-56.298c-3.905-3.904-10.238-3.903-14.142.003s-3.903 10.238.003 14.142l56.313 56.287c6.663 6.682 6.667 17.535.009 24.193-6.668 6.667-17.517 6.667-24.181.001L309.335 155.018l24.587-23.729 33.302 33.28a9.963 9.963 0 0 0 7.068 2.927 9.97 9.97 0 0 0 7.073-2.931c3.904-3.907 3.902-10.238-.005-14.143l-33.092-33.069c23.519-24.566 23.641-63.656-.175-88.327-11.792-12.216-27.685-19.11-44.75-19.413-17.019-.311-33.181 6.02-45.374 17.791l-1.957 1.882-1.943-1.875c-12.219-11.78-28.34-18.125-45.403-17.798-17.067.303-32.954 7.199-44.729 19.413-23.823 24.679-23.712 63.77-.2 88.33L10.85 270.249c-14.465 14.465-14.465 38.002-.009 52.458 6.969 6.988 16.276 10.84 26.207 10.847h.026c7.713 0 15.05-2.329 21.219-6.638v146.765c0 15.846 12.892 28.737 28.737 28.737h337.947c15.846 0 28.737-12.892 28.737-28.737V326.894a37.047 37.047 0 0 0 21.237 6.672c9.5 0 19.001-3.616 26.233-10.849 14.447-14.446 14.451-37.979-.001-52.469zM178.333 42.912c8.069-8.37 18.968-13.094 30.69-13.302.27-.005.537-.007.806-.007 11.422 0 22.178 4.318 30.358 12.205l8.873 8.561a10 10 0 0 0 13.876.011l8.913-8.574c8.361-8.072 19.419-12.406 31.142-12.195 11.725.208 22.633 4.934 30.716 13.307 16.748 17.35 16.249 45.1-1.11 61.858l-76.593 73.918-76.592-73.917c-17.353-16.753-17.839-44.503-1.079-61.865zM37.073 313.555h-.012c-4.583-.003-8.866-1.768-12.069-4.979-6.667-6.668-6.667-17.517 0-24.184l153.094-153.099 24.599 23.74L61.511 296.235a9.982 9.982 0 0 0-.554.554l-11.783 11.785c-3.211 3.213-7.508 4.981-12.101 4.981zm157.759 24.775c-15.962 0-28.948-12.999-28.948-28.978s12.986-28.978 28.948-28.978c15.978 0 28.977 12.999 28.977 28.978s-13 28.978-28.977 28.978zm-30.182 9.538c8.323 6.544 18.801 10.462 30.182 10.462 11.393 0 21.881-3.921 30.21-10.47 5.985 3.065 11.499 6.974 15.372 12.802-13.813 6.033-23.494 19.82-23.494 35.831a38.903 38.903 0 0 0 3.499 16.145c-10.368 6.653-20.082 17.702-20.082 37.914v31.869h-56.649V381.723c0-18.22 8.177-27.268 20.962-33.855zm152.525-9.538c-15.978 0-28.977-12.999-28.977-28.978s12.999-28.978 28.977-28.978 28.977 12.999 28.977 28.978-12.999 28.978-28.977 28.978zm-30.21 9.53c8.329 6.549 18.817 10.47 30.21 10.47 11.39 0 21.876-3.919 30.204-10.465 12.788 6.587 20.968 15.635 20.968 33.858v100.696h-56.649V450.55c0-20.213-9.713-31.26-20.086-37.91a38.874 38.874 0 0 0 3.504-16.149c0-16.011-9.688-29.797-23.511-35.831 3.864-5.826 9.375-9.734 15.36-12.8zm-30.961 29.548c10.538 0 19.112 8.561 19.112 19.084 0 10.539-8.574 19.113-19.112 19.113-10.522 0-19.083-8.574-19.083-19.113-.001-10.523 8.56-19.084 19.083-19.084zm-22.762 50.849c6.416 4.617 14.274 7.348 22.762 7.348 8.493 0 16.357-2.73 22.777-7.347 8.092 4.517 12.917 10.569 12.917 22.292v31.869h-71.361V450.55c0-11.718 4.821-17.771 12.905-22.293zm191.735 54.162h-36.63V381.723c0-27.129-13.861-41.222-27.897-49.469a48.665 48.665 0 0 0 5.702-22.902c0-27.006-21.971-48.978-48.977-48.978s-48.977 21.971-48.977 48.978a48.67 48.67 0 0 0 5.704 22.906c-6.348 3.741-12.796 8.782-17.894 15.834-5.105-7.052-11.555-12.093-17.904-15.834a48.667 48.667 0 0 0 5.704-22.905c0-27.006-21.971-48.978-48.977-48.978-26.99 0-48.948 21.971-48.948 48.978a48.68 48.68 0 0 0 5.7 22.903c-14.036 8.247-27.895 22.34-27.895 49.467v100.696H87.03c-4.736 0-8.737-4.001-8.737-8.737V307.738l138.786-138.815 31.98 30.863a9.975 9.975 0 0 0 6.944 2.804 9.972 9.972 0 0 0 6.944-2.804l31.995-30.877L433.715 307.71v165.972c0 4.818-3.92 8.737-8.738 8.737z"/><path d="M406.044 199.281a9.95 9.95 0 0 1-8.918-5.507l-.028-.057c-2.47-4.94-.468-10.947 4.473-13.417 4.936-2.471 10.946-.468 13.416 4.472s.481 10.975-4.458 13.445a10.003 10.003 0 0 1-4.485 1.064z"/></svg>