<svg xmlns="http://www.w3.org/2000/svg" width="512" height="512" viewBox="0 0 512 512"><clipPath id="a"><path d="M0 0h512v512H0z"/></clipPath><g fill="#537796" clip-path="url(#a)"><path d="M511.999 163.58l-29.033-29.036V156.3h-86.253l-36.791-74.782-56.812 114.074L193.635 6l-77.528 159.017H49.579a195.346 195.346 0 0121.472-47.557v-4.713H56.885a210.051 210.051 0 00-30.1 108.827c0 1.865.054 3.717.115 5.566h14.531q-.086-2.77-.091-5.566a198.441 198.441 0 014.48-42h79.386l69.516-142.582 109.335 189.351 55.783-112.018 27.81 56.531h95.316v21.756zM231.715 417.283c7.54 0 14.8 5.811 19.423 15.539l12.894-6.123c-7.049-14.837-19.129-23.694-32.317-23.694-15.8 0-29.057 12.295-35.014 30.319h-11.468v14.277h8.489a65.828 65.828 0 000 14.592h-8.484v14.274h11.468c5.957 18.027 19.214 30.319 35.014 30.319 13.191 0 25.271-8.859 32.317-23.694l-12.894-6.126c-4.622 9.731-11.883 15.542-19.423 15.542-7.973 0-15.176-6.423-19.6-16.042h22.402v-14.271H208.07a55.547 55.547 0 010-14.592h26.452v-14.278h-22.405c4.419-9.619 11.626-16.042 19.598-16.042zM57.816 307.817V293.54H40.308v-14.595h17.507v-14.272h-15.37l23.892-23.892-10.1-10.1-23.07 23.075-23.07-23.07-10.1 10.1 23.894 23.892H8.524v14.267h17.508v14.59H8.524v14.277h17.508v13.286h14.277v-13.281zM443.01 275.41h22.664v-14.277H443.01V247.96l-.1-1.168c-.965-5.805-.173-10.158 2.355-12.93 4.271-4.691 13.206-5.136 16.248-4.928l1.141-14.232c-1.828-.142-18.142-1.123-27.873 9.468-5.566 6.057-7.6 14.25-6.051 24.356v12.606h-12.346v14.277h12.349v20.406h-12.349v14.279h59.128v-14.278h-32.5z"/><path d="M261.919 408.103V210.884h-39.427v184.531a38.346 38.346 0 019.223-1.135c11.332.004 21.91 4.982 30.204 13.823zM410.028 318.815a196.8 196.8 0 01-25.531 35.268V233.628h-39.423v153.781a198.389 198.389 0 01-21.865 12.152V273.052h-39.424v140.421c-5.091 1.2-10.264 2.137-15.473 2.936a62.64 62.64 0 013.6 6.547l3.372 7.095a212.35 212.35 0 00151.337-111.236zM200.63 409.053V156.294h-39.427v246.654a196.954 196.954 0 01-21.862-11.06V233.631H99.914V361.66a198.571 198.571 0 01-34.13-45.12h-16.42a212.676 212.676 0 00129.161 108.062h12.217a59.112 59.112 0 019.888-15.549zM79.777 120.469h14.277v-16.444h26.463V61.937H94.054v-13.53h26.463V34.13H94.054V17.686H79.777V34.13H53.314v42.087h26.463v13.53H53.314v14.277h26.463zm-12.19-58.532v-13.53h12.19v13.53zm26.467 14.28h12.186v13.53H94.054z"/></g></svg>