<svg xmlns="http://www.w3.org/2000/svg" width="512" height="512" viewBox="0 0 512 512"><path fill="#80dbff" d="M151 151C68.2 151 0 218.2 0 301c0 45.599 22 88.5 57.4 116.999-4.2 14.101-11.7 27.001-21.899 37.5C31 459.699 29.801 466 32.2 471.7c2.4 5.7 7.8 9.3 13.8 9.3h30c24 0 46.5-11.7 60.3-30.901 4.799.601 9.6.901 14.7.901 82.8 0 150-67.2 150-150s-67.2-150-150-150z"/><path fill="#4ab8f7" d="M301 301c0 82.8-67.2 150-150 150V151c82.8 0 150 67.2 150 150z"/><path fill="#ff6e7c" d="M454.633 297.997C490.111 269.594 512 226.586 512 181c0-82.705-68.295-150-151-150S211 98.295 211 181s67.295 150 150 150c5.039 0 9.917-.396 14.604-.967C389.608 349.369 411.903 361 436 361h30a14.983 14.983 0 0 0 13.857-9.258 14.984 14.984 0 0 0-3.252-16.348c-10.385-10.4-17.885-23.188-21.972-37.397z"/><path fill="#ff468c" d="M436 361h30a14.983 14.983 0 0 0 13.857-9.258 14.984 14.984 0 0 0-3.252-16.348c-10.386-10.4-17.886-23.188-21.973-37.397C490.111 269.594 512 226.586 512 181c0-82.705-68.295-150-151-150v300c5.039 0 9.917-.396 14.604-.967C389.608 349.369 411.903 361 436 361z"/><circle cx="211" cy="301" r="15" fill="#b5efff"/><g fill="#e3fbff"><circle cx="151" cy="301" r="15"/><circle cx="91" cy="301" r="15"/><path d="M361 91c-24.814 0-45 20.186-45 45 0 8.291 6.709 15 15 15s15-6.709 15-15c0-8.276 6.724-15 15-15s15 6.724 15 15c0 4.819-2.241 9.229-6.138 12.1-3.3 2.433-6.182 5.301-8.862 8.326-9.459 10.67-15 24.578-15 39.575 0 8.291 6.709 14.648 15 14.648s15-7.061 15-15.352c0-9.053 4.365-17.666 11.675-23.057C399.145 163.788 406 150.238 406 136c0-24.814-20.186-45-45-45z"/><circle cx="361" cy="241" r="15"/></g><g fill="#b5efff"><path d="M376 195.297c0-9.053 4.365-17.666 11.675-23.057C399.145 163.788 406 150.238 406 136c0-24.814-20.186-45-45-45v30c8.276 0 15 6.724 15 15 0 4.819-2.241 9.229-6.138 12.1-3.3 2.433-6.182 5.301-8.862 8.326v54.223c8.291-.001 15-7.061 15-15.352zM376 241c0-8.286-6.716-15-15-15v30c8.284 0 15-6.716 15-15zM166 301c0 8.399-6.599 15-15 15v-30c8.401 0 15 6.599 15 15z"/></g></svg>