<svg xmlns="http://www.w3.org/2000/svg" width="235" height="235" fill="none" viewBox="0 0 235 235"><clipPath id="a"><path d="M0 0h235v235H0z"/></clipPath><g clip-path="url(#a)"><path fill="#f46262" d="M187.329 140.111V2.987H17.359v141.029c0 10.147 8.228 18.375 18.376 18.375H209.61c-12.305 0-22.281-9.976-22.281-22.28z"/><path fill="#e4edfb" d="M209.609 162.391c-12.305 0-22.281-9.976-22.281-22.28V104.05h44.561v36.061c0 12.304-9.976 22.28-22.28 22.28zM65.767 191.271L30.316 226.57a15.405 15.405 0 01-10.937 4.534c-3.96 0-7.92-1.511-10.942-4.534-6.046-6.04-6.046-15.84 0-21.881l34.425-34.278a55.346 55.346 0 0022.905 20.86z"/><path fill="#ef4848" d="M158.849 141.719c0-37.995-30.912-68.907-68.907-68.907s-68.907 30.912-68.907 68.907a68.85 68.85 0 0 0 1.714 15.297 18.321 18.321 0 0 0 12.986 5.375H155.68a68.693 68.693 0 0 0 3.17-20.672z"/><path fill="#bcc8d9" d="M65.768 191.271L55.57 201.428a69.492 69.492 0 0 1-22.675-21.095l9.968-9.922a55.346 55.346 0 0 0 22.905 20.86z"/><path fill="#e4edfb" d="M145.066 141.719c0 30.444-24.679 55.125-55.125 55.125-30.445 0-55.125-24.681-55.125-55.125 0-30.446 24.68-55.127 55.125-55.127 30.446 0 55.125 24.681 55.125 55.127z"/><path fill="#92d8ff" d="M126.692 141.719c0 20.296-16.454 36.749-36.75 36.749-20.295 0-36.75-16.453-36.75-36.749 0-20.298 16.455-36.751 36.75-36.751 20.296 0 36.75 16.453 36.75 36.751z"/><path fill="#bcc8d9" d="M201.11 153.891V104.05h-13.782v36.061c0 12.304 9.976 22.28 22.281 22.28-4.687 0-8.499-3.813-8.499-8.5z"/><path fill="#4abef0" d="M89.942 118.75c17.94 0 32.87 12.857 36.095 29.859.425-2.234.655-4.534.655-6.89 0-20.298-16.454-36.751-36.75-36.751-20.297 0-36.75 16.453-36.75 36.751 0 2.356.23 4.656.656 6.89 3.225-17.002 18.155-29.859 36.094-29.859z"/><g fill="#fff"><path d="M31.14 13.323h6.89v6.89h-6.89zM165.738 13.323h6.89v6.89h-6.89zM172.628 144.475h-6.89v-6.891h6.89zm0-13.783h-6.89v-6.89h6.89zm0-13.78h-6.89v-6.89h6.89zm0-13.782h-6.89v-6.89h6.89zM48.762 72.124c-11.11 0-20.149-9.04-20.149-20.151h6.89c0 7.311 5.947 13.259 13.259 13.259s13.26-5.948 13.26-13.26V25.037h6.89v26.937c0 11.11-9.04 20.15-20.15 20.15zM99.192 72.123c-12.665 0-22.97-10.303-22.97-22.969V46.23c0-12.665 10.304-22.969 22.97-22.969 12.665 0 22.969 10.304 22.969 22.97v2.923c0 12.666-10.304 22.97-22.97 22.97zm0-41.97c-8.866 0-16.077 7.213-16.077 16.077v2.925c0 8.864 7.21 16.077 16.077 16.077 8.866 0 16.078-7.213 16.078-16.077V46.23c0-8.864-7.212-16.077-16.078-16.077zM151.393 51.451h-22.635V23.89h22.635c7.599 0 13.781 6.182 13.781 13.78 0 7.6-6.182 13.782-13.781 13.782zM135.65 44.56h15.743a6.898 6.898 0 006.89-6.89c0-3.8-3.091-6.89-6.89-6.89H135.65z"/><path d="M151.393 72.123h-22.635V44.56h22.635c7.599 0 13.781 6.184 13.781 13.782 0 7.599-6.182 13.782-13.781 13.782zm-15.743-6.892h15.743c3.799 0 6.89-3.09 6.89-6.89s-3.091-6.89-6.89-6.89H135.65zM101.422 126.329h6.892v6.891h-6.892zM107.395 139.652h6.891v6.89h-6.891z"/></g><path fill="#000" d="M130.135 141.719c0-22.164-18.031-40.195-40.195-40.195-1.192 0-2.396.052-3.575.156l.606 6.863a34.064 34.064 0 012.969-.129c18.365 0 33.305 14.94 33.305 33.305s-14.94 33.305-33.305 33.305a33.229 33.229 0 01-17.504-4.965l-3.627 5.858a40.106 40.106 0 0021.13 5.997c22.165 0 40.196-18.031 40.196-40.195zM80.842 109.671l-1.877-6.631c-17.205 4.874-29.219 20.778-29.219 38.677a40.295 40.295 0 0013.067 29.66l4.65-5.083a33.39 33.39 0 01-10.827-24.575c0-14.833 9.954-28.011 24.206-32.048zM20.804 6.431h86.133v-6.89H13.914v88.43h6.89z"/><path fill="#000" d="M190.777 100.604V-.459H113.83v6.89h70.057v133.68c0 7.431 3.171 14.133 8.227 18.834h-46.187a58.374 58.374 0 0 0 2.587-17.226 58.408 58.408 0 0 0-15.465-39.656l-5.071 4.667a51.523 51.523 0 0 1 13.646 34.989c0 28.495-23.184 51.679-51.68 51.679-28.497 0-51.68-23.184-51.68-51.679 0-28.497 23.183-51.68 51.68-51.68a51.706 51.706 0 0 1 33.374 12.22L127.772 97a58.612 58.612 0 0 0-37.829-13.852c-32.295 0-58.57 26.273-58.57 58.571 0 5.951.894 11.697 2.553 17.111-7.382-.896-13.12-7.196-13.12-14.814V94.861h-6.89v49.155c0 12.03 9.79 21.819 21.82 21.819h.836a57.849 57.849 0 0 0 1.997 3.988l-32.566 32.43A18.794 18.794 0 0 0 .46 215.63c0 5.054 1.969 9.805 5.542 13.379a18.863 18.863 0 0 0 13.379 5.532c4.842 0 9.687-1.843 13.371-5.527l33.76-33.621a58.25 58.25 0 0 0 23.43 4.897c23.704 0 44.163-14.155 53.372-34.455h69.645l.009-.226c12.603-1.651 22.367-12.451 22.367-25.498v-39.507zM27.885 224.135c-4.69 4.692-12.32 4.691-17.01 0-2.272-2.271-3.524-5.292-3.524-8.505s1.252-6.234 3.518-8.5l31.447-31.314a58.579 58.579 0 0 0 17.741 16.282zm200.561-84.024c0 10.246-8.228 18.603-18.422 18.823l-.563.008c-10.317-.083-18.684-8.497-18.684-18.831v-32.617h37.669z"/></g></svg>