<svg xmlns="http://www.w3.org/2000/svg" width="512" height="512" viewBox="0 0 512 512"><clipPath id="a"><path d="M0 0h512v512H0z"/></clipPath><g fill="#537796" clip-path="url(#a)"><path d="M512 336.01l-54.512-116.13-36.067 16.931 31.071-25.947-82.225-98.471L174.055 276.23l-110.01-17.114a18.181 18.181 0 00-20.731 15.144l-8.9 57.21H18.155A18.176 18.176 0 000 349.625v77.572a18.176 18.176 0 0018.155 18.153h135.379a18.161 18.161 0 0016.222-10.051v49.727h270.192V369.833zm-14.176-5.118l-57.876 27.168v-1.321h-17.991l64.106-30.094-37.94-80.829-66.609 31.27a61.539 61.539 0 00-14.6-2.917l85.452-40.114zm-128.285 7.018l9.646-4.527 4.99 10.626-9.646 4.527zm28.812 11.22l-14.045-29.924-19.294 9.058-4.987-10.629 19.291-9.055-4.527-9.649-19.294 9.055-5.627-11.987-9.649 4.527 5.627 11.99-19.291 9.055 14.045 29.923 19.294-9.055 4.987 10.626-7.828 3.672h-40.6a50.476 50.476 0 01-2.442-36.189l.207-.1-.107-.228a50.511 50.511 0 0167.564-31.768l.125.271.253-.119a50.523 50.523 0 0126.327 25.189 50.34 50.34 0 012.542 36.354l-.237.11.122.262c-.216.688-.387 1.385-.633 2.067-.518 1.425-1.123 2.8-1.76 4.156h-26.276zm-42.988-16.338l-9.643 4.527-4.99-10.626 9.645-4.527zm-120.713-8.309l-21.5-25.752a17.985 17.985 0 00-3.471-11.573c-.21-.292-.481-.518-.706-.795l37.665-31.447a61.18 61.18 0 0033.61 48.164zm-23.59-11.628l13.615 16.307-8.279 3.888-7.149-8.562zm-3.992 25.648l15.23 18.235h-18.067zm27.953 18.235l-7.946-16.922 85.452-40.114a61.618 61.618 0 00-7.082 13.1l-66.606 31.263 5.952 12.681zm21.544 0l-3.547-7.56 48.745-22.884a61.006 61.006 0 003.154 30.444zm161.463-47.476a61.056 61.056 0 00-23.773-26.382L443 259.999l28.882 61.53-48.688 22.856a60.946 60.946 0 00-5.165-35.123zm-49.11-181.859l68.563 82.113-54.034 45.119-16.072 7.544a61.968 61.968 0 001.169-6.625l56.479-47.159-57.228-68.533-56.476 47.159a61.506 61.506 0 00-14.864.886zm-14.109 81.464a61.031 61.031 0 00-29.695-19.48l41.332-34.518 43.569 52.177-41.335 34.515a61.023 61.023 0 00-13.871-32.694zm-97.75 36.972c.034-.722.024-1.44.088-2.168a50.7 50.7 0 0150.493-46.17 51.106 51.106 0 016.75.5l.164.2.174-.143a50.418 50.418 0 0143.569 52.171l-.177.146.161.195a50.836 50.836 0 01-4.168 17.833l-16.262 7.636-8.312-9.956 16.359-13.661-21.183-25.372-16.359 13.666-7.523-9.009 16.359-13.661-6.829-8.178-16.362 13.648-8.489-10.166-8.178 6.829 8.489 10.166-16.359 13.671 21.185 25.371 16.359-13.662 7.523 9.012-16.356 13.658 6.829 8.178 16.359-13.657 6.516 7.8-34.317 16.109a50.312 50.312 0 01-36.518-50.6l.2-.164zm65.653 12.066l-7.526-9.012 8.181-6.832 7.526 9.012zm-22.537-10.362l-8.181 6.829-7.523-9.012 8.178-6.829zm-49.875-21.1a61.5 61.5 0 00-3.517 14.462l-47.26 39.462c-.572-.146-1.124-.347-1.714-.438l-9.746-1.519zM18.155 342.123h135.379a7.508 7.508 0 017.5 7.5v44.979H10.656v-44.979a7.508 7.508 0 017.499-7.5zm135.379 92.571H18.155a7.508 7.508 0 01-7.5-7.5v-16.078h150.378v16.079a7.508 7.508 0 01-7.499 7.499zm26.878 39.675V367.394h94.4a61.742 61.742 0 00-11.978 8.845h-73.576v89.288h73.577a61.835 61.835 0 0011.975 8.842zm73.353-19.5h-53.851v-67.973h53.851a61.18 61.18 0 000 67.976zm13.753.253v-.253h-.228a50.429 50.429 0 010-67.976h.228v-.253a50.492 50.492 0 0174.668 0v.256h.231a50.429 50.429 0 010 67.976h-.231v.256a50.492 50.492 0 01-74.668 0zm161.773 19.245h-94.394a61.906 61.906 0 0011.972-8.842h73.578v-89.286h-73.578a61.651 61.651 0 00-11.978-8.845h94.4zm-73.349-87.471h53.848v67.976h-53.851a61.188 61.188 0 000-67.976zM126.292 104.933h16.156v17.941h-16.156zM161.376 141.802h16.154v17.938h-16.154z"/><path d="M151.912 221.582a89.246 89.246 0 1 0-89.246-89.243 89.345 89.345 0 0 0 89.246 89.243zm-44.547-61.841h35.084v-17.939h-35.084v-55.8h35.084v-21.8h18.926v21.8h35.084v18.929h-35.084v17.944h35.084v55.794h-35.084v21.8h-18.926v-21.8h-35.084z"/><path d="M151.912 238.674A106.337 106.337 0 1045.576 132.336a106.338 106.338 0 00106.336 106.338zm0-201.674a95.335 95.335 0 11-95.335 95.338 95.444 95.444 0 0195.335-95.34zM310.18 379.911h-10.656v13.247H278.21v33.05h21.313v11.743H278.21v10.656h21.313v13.244h10.657v-13.243h21.313v-33.056H310.18v-11.737h21.313v-10.657H310.18zm-10.656 35.641h-10.657v-11.737h10.656zm21.313 10.656v11.743H310.18v-11.742z"/></g></svg>