<svg xmlns="http://www.w3.org/2000/svg" width="512" height="512" viewBox="0 0 512 512"><path fill="#dad8db" d="M310.071 473.951H201.929l9.527-72.648h89.088z"/><path fill="#c8c5c9" d="M302.904 419.303l-2.36-18h-89.088l-2.36 18z"/><path fill="#bed8fb" d="M474 401.303H38c-16.569 0-30-13.431-30-30V68.049c0-16.568 13.431-30 30-30h436c16.569 0 30 13.432 30 30v303.254c0 16.569-13.431 30-30 30z"/><path fill="#eceaec" d="M8 338.042v33.261c0 16.568 13.431 30 30 30h436c16.569 0 30-13.432 30-30v-33.261z"/><path fill="#a3caf7" d="M8 320.042h496v18H8z"/><path fill="#dad8db" d="M474 383.303H38c-16.569 0-30-13.431-30-30v18c0 16.569 13.431 30 30 30h436c16.569 0 30-13.431 30-30v-18c0 16.569-13.431 30-30 30z"/><path fill="#eceaec" d="M58.958 144.559h394.083v193.483H58.958z"/><path fill="#dad8db" d="M58.958 320.042h394.083v18H58.958z"/><path fill="#434d59" d="M438.041 85.146H73.958c-8.284 0-15 6.716-15 15v44.413h394.083v-44.413c0-8.284-6.715-15-15-15z"/><path fill="#df667c" d="M110.421 182.992h291.142v80.81H110.421z"/><path fill="#dc4857" d="M110.421 245.802h291.142v18H110.421z"/><path fill="#edc963" d="M110.421 297.109h127.625v40.933H110.421zM273.954 297.109h127.625v40.933H273.954z"/><g fill="#e7b93e"><path d="M110.421 320.042h127.625v18H110.421zM273.954 320.042h127.625v18H273.954z"/></g><path d="M474.427 30.108H310.672a7.515 7.515 0 1 0 0 15.03h163.754c12.43 0 22.544 10.113 22.544 22.544v263.007h-36.028l-.001-230.847c0-12.431-10.114-22.544-22.544-22.544H73.602c-12.431 0-22.544 10.113-22.544 22.544v230.847H15.029V67.681c0-12.431 10.114-22.544 22.544-22.544h243.04a7.515 7.515 0 1 0 0-15.03H37.573C16.855 30.108 0 46.963 0 67.681v303.848c0 20.718 16.855 37.573 37.573 37.573h165.231l-7.574 57.761h-26.702a7.515 7.515 0 1 0 0 15.03h174.943a7.515 7.515 0 1 0 0-15.03H316.77l-7.574-57.761h79.629a7.515 7.515 0 1 0 0-15.03H37.573c-12.43 0-22.544-10.113-22.544-22.544v-25.811H496.97v25.811c0 12.431-10.114 22.544-22.544 22.544h-55.543a7.515 7.515 0 1 0 0 15.03h55.543c20.718 0 37.573-16.855 37.573-37.573V67.681c.001-20.718-16.854-37.573-37.572-37.573zM301.612 466.863h-91.223l7.574-57.761h76.074zM66.087 99.841c0-4.144 3.371-7.515 7.515-7.515h364.796c4.144 0 7.515 3.371 7.515 7.515v36.985H66.087zm0 52.015h379.826v178.833h-36.534V297.19a7.515 7.515 0 0 0-7.515-7.515H273.989a7.515 7.515 0 0 0-7.515 7.515v33.499h-20.949V297.19a7.515 7.515 0 0 0-7.515-7.515H110.136a7.515 7.515 0 0 0-7.515 7.515v33.499H66.087zm328.262 178.832H281.504v-25.984h112.845zm-163.853 0H117.651v-25.984h112.845z"/><path d="M94.748 102.455c-6.364 0-11.542 5.178-11.542 11.543s5.178 11.542 11.542 11.542 11.542-5.178 11.542-11.542c.001-6.364-5.177-11.543-11.542-11.543zM131.791 102.455c-6.364 0-11.542 5.178-11.542 11.543s5.178 11.542 11.542 11.542 11.542-5.178 11.542-11.542-5.178-11.543-11.542-11.543zM168.833 102.455c-6.364 0-11.542 5.178-11.542 11.543s5.178 11.542 11.542 11.542c6.365 0 11.543-5.178 11.543-11.542s-5.178-11.543-11.543-11.543zM110.136 271.332h54.669a7.515 7.515 0 100-15.03H117.65v-65.938h276.683v65.938h-199.47a7.515 7.515 0 100 15.03h206.984a7.515 7.515 0 007.515-7.515V182.85a7.515 7.515 0 00-7.515-7.515H110.136a7.515 7.515 0 00-7.515 7.515v80.968a7.514 7.514 0 007.515 7.514z"/></svg>