<svg xmlns="http://www.w3.org/2000/svg" width="512" height="512" viewBox="0 0 512 512"><path fill="#ff8066" d="M457.402 134.699l-40.05-40.05-40.05-40.05c-10.07-10.07-24.74-13.6-38.29-9.21l-86.841 28.09a70.272 70.272 0 0 0-27.97 17.11L4.388 310.4c-5.875 5.875-5.827 15.383 0 21.21L180.39 507.612c5.828 5.828 15.336 5.874 21.21 0L421.412 287.8c7.8-7.8 13.72-17.47 17.11-27.97l28.1-86.841c4.38-13.55.84-28.22-9.22-38.29zm-87.421 61.08c-14.84 14.84-38.91 14.84-53.76 0-14.84-14.85-14.84-38.92 0-53.76 14.85-14.85 38.92-14.85 53.76 0 14.85 14.84 14.85 38.91 0 53.76z"/><path fill="#ff4d4d" d="M466.622 172.989l-28.1 86.841a70.272 70.272 0 0 1-17.11 27.97L201.6 507.612c-5.875 5.875-15.383 5.827-21.21 0l-88.001-88.001 223.832-223.832c14.85 14.84 38.92 14.84 53.76 0 14.85-14.85 14.85-38.92 0-53.76l47.37-47.371 40.05 40.05c10.061 10.071 13.601 24.741 9.221 38.291z"/><path fill="#334973" d="M507.612 25.608L374.921 158.289c-2.93 2.93-6.77 4.4-10.61 4.4s-7.67-1.47-10.6-4.4c-5.86-5.86-5.86-15.35 0-21.21L486.392 4.388c5.86-5.85 15.36-5.85 21.22 0 5.851 5.86 5.851 15.36 0 21.22z"/><path fill="#1f3259" d="M507.612 25.608L374.921 158.289c-2.93 2.93-6.77 4.4-10.61 4.4s-7.67-1.47-10.6-4.4L507.612 4.388c5.851 5.86 5.851 15.36 0 21.22z"/></svg>