<svg xmlns="http://www.w3.org/2000/svg" width="512" height="512" viewBox="0 0 512 512"><clipPath id="a"><path d="M0 0h512v512H0z"/></clipPath><g fill="#537796" clip-path="url(#a)"><circle cx="31.763" cy="31.763" r="31.763" transform="translate(418.622 140.891)"/><path d="M492.518 247.17h-76.454v-44.052a19.917 19.917 0 00-.214-2.736c-.028-.186-.053-.376-.086-.562a19.652 19.652 0 00-.6-2.521c-.047-.15-.106-.3-.156-.445a19.7 19.7 0 00-.879-2.151c-.067-.139-.125-.281-.195-.417a19.306 19.306 0 00-1.341-2.24c-.089-.131-.184-.253-.278-.381a19.054 19.054 0 00-1.622-1.965c-.036-.039-.07-.081-.106-.12a19.659 19.659 0 00-1.979-1.764c-.161-.125-.326-.245-.49-.367a19.477 19.477 0 00-2.068-1.339c-.072-.042-.139-.089-.214-.128l-.042-.025-53.156-28.524a19.479 19.479 0 00-23.421 3.843l-58.341 62.232a19.479 19.479 0 1028.422 26.644l48.106-51.312 19.208 10.305-174.444 215.069a19.481 19.481 0 0030.262 24.54l88.5-109.111 57.963 5.944-63.139 68.633a19.481 19.481 0 0028.673 26.38l89.455-97.236a19.481 19.481 0 00-12.348-32.569l-71.274-7.311 36.843-45.423v8.585a19.479 19.479 0 0019.481 19.481h95.934a19.481 19.481 0 100-38.961zM50.761 340.59h162.818v11.132H50.761zM26.193 373.165h162.818v11.132H26.193zM0 405.737h162.818v11.132H0zM118.684 236.616a93.08 93.08 0 10-52.1-120.885 92.99 92.99 0 0052.1 120.885zm-42.39-57.994c21.44-5.591 38.007-18.417 46.456-36.067l24.9 9.9-28.695 72.17a81.759 81.759 0 01-42.661-46.002zm-.81-54.86l39.476 15.7c-7.511 15.237-22.166 26.332-41.171 31.194a81.5 81.5 0 011.695-46.893zm51.231 103.954l28.7-72.173 24.9 9.9c-5.981 18.643-2.736 39.359 9.031 58.158a86.348 86.348 0 01-3.838 1.773 81.341 81.341 0 01-58.792 2.343zm69.93-8.179c-10.5-16.592-13.55-34.742-8.538-50.995l39.473 15.7a81.206 81.206 0 01-30.935 35.296zm34.021-43.055l-39.476-15.7c7.522-15.253 22.2-26.354 41.221-31.205a81.18 81.18 0 01-1.744 46.906zm-2.338-58.8c.559 1.3 1.08 2.61 1.572 3.927-21.459 5.585-38.043 18.415-46.5 36.075l-24.907-9.9 28.695-72.17a81.359 81.359 0 0141.139 42.074zm-75.152-49.506a81.462 81.462 0 0126.26 4.361l-28.695 72.164-24.907-9.9c5.975-18.626 2.744-39.312-8.989-58.091a82.26 82.26 0 0136.331-8.534zm-43.623 12.613c10.464 16.57 13.494 34.687 8.494 50.914l-39.42-15.677a81.409 81.409 0 0130.926-35.237z"/></g></svg>