<svg xmlns="http://www.w3.org/2000/svg" width="512" height="512" viewBox="0 0 512 512"><clipPath id="a"><path d="M0 0h512v512H0z"/></clipPath><g fill="#537796" clip-path="url(#a)"><path d="M98.897 235.04L48.444 380.171h50.453zM302.236 380.171l.321-.321v-54.163l-42.531-25.79v80.277z"/><path d="M311.583 320.604v50.219l19.361-19.361h-15.218v-19.973h19.972v15.215l37.5-37.5h-15.22v-19.967h19.972v15.218l27.657-27.656V96.036h-6.147v-16.9H251.968v16.9h-6.147v59.248h-10.82v9.027h10.819v88.265l-145.542-88.265h8.355v-9.026H90.581v3.144L12.89 380.171h26l64.58-185.776zm46.4-200.368h19.967v19.975h-19.972zm0 42.249h19.967v19.975h-19.972zm0 42.252h19.967v19.974h-19.972zm0 42.249h19.967v19.975h-19.972zm-42.252-126.75h19.972v19.975h-19.977zm0 42.249h19.972v19.975h-19.977zm0 42.252h19.972v19.974h-19.977zm0 42.249h19.972v19.975h-19.977zm0 42.252h19.972v19.973h-19.977zm-42.249-169h19.968v19.973h-19.973zm0 42.249h19.968v19.975h-19.973zm0 42.252h19.968v19.972h-19.973zm0 42.249h19.968v19.973h-19.973z"/><path d="M149.597 380.171V232.926L108.331 207.9l-.482 1.387h.074v170.884zM200.298 380.17v-116.5l-41.675-25.273V380.17zM467.125 155.283h-9.283v9.028h9.283v173.706h9.026V79.136h-9.026z"/><path d="M222.335 409.72v-29.549h28.667v-85.75l-41.674-25.274v111.024h6.992v29.549H43.612v6.017h172.706v85.611h6.018v-85.611h65.609l-18.443 18.435h185.909v-185.9L293.962 409.72zm206-96.076v93.452h-93.454zM144.42 78.888h18.053v9.026H144.42zM180.525 78.888h18.053v9.026h-18.053zM108.315 78.888h18.053v9.026h-18.053zM216.631 78.888h13.827v9.026h-13.827zM36.105 78.888h18.053v9.026H36.105zM0 78.888h18.053v9.026H0zM72.21 78.888h18.053v9.026H72.21zM198.897 155.284h18.053v9.026h-18.053zM162.792 155.284h18.053v9.026h-18.053zM144.74 155.284h-5.744V10h-9.03v145.284h-3.282v9.026h18.053zM421.737 155.284h18.053v9.026h-18.053zM493.947 155.284H512v9.026h-18.053z"/></g></svg>