<svg xmlns="http://www.w3.org/2000/svg" viewBox="0 0 512 512"><path fill="#92deee" d="M455.536 231.453h-40.183l6.597-10.175c1.916-2.954.604-5.37-2.916-5.37h-2.891c-12.612 9.098-28.033 14.468-44.701 14.468s-32.089-5.37-44.702-14.468h-2.89c-3.522 0-4.834 2.416-2.92 5.37l6.598 10.175h-40.182c-5.5 0-10 4.5-10 10v8.895a.022.022 0 0 1 .008.005c20.948 11.807 35.105 34.248 35.105 60.009v7.665c7.209 1.08 12.789 7.32 12.789 14.817v10.789c0 8.25-6.75 15-15 15h-5.784c-2.448 19.962-14.248 36.978-30.835 46.422 13.318 7.905 23.274 20.896 27.18 36.275l.003.01h154.725c5.5 0 10-4.5 10-10V241.453c-.001-5.5-4.501-10-10.001-10z"/><path fill="#92deee" d="M419.034 215.907h-2.891c-12.612 9.098-28.033 14.468-44.701 14.468s-32.089-5.37-44.702-14.468h-2.89c-3.522 0-4.834 2.416-2.92 5.37l26.754 41.259c1.914 2.954 5.047 2.954 6.963 0l13.31-20.529c1.914-2.953 5.051-2.953 6.967 0l13.311 20.529c1.916 2.954 5.049 2.954 6.965 0l26.75-41.259c1.916-2.954.604-5.37-2.916-5.37z"/><path fill="#37005e" d="M298.001 268.173v-26.721c0-5.5 4.5-10 10-10h-20.654c-5.5 0-10 4.5-10 10v8.895a69.179 69.179 0 0 1 20.654 17.826z" opacity=".1"/><path fill="#ffb98a" d="M294.314 152.314v-33.876h-14.418c-8.25 0-15 6.75-15 15v17.357c0 8.25 6.75 15 15 15h15.588a79.3 79.3 0 01-1.17-13.481zM462.989 118.438h-14.42v33.876c0 4.6-.416 9.099-1.17 13.48h15.59c8.25 0 15-6.75 15-15v-17.357c0-8.249-6.75-14.999-15-14.999z"/><path fill="#a75436" d="M441.118 7.5h-68.313c-11.249 0-21.127 6.04-26.645 15.082h-20.553c-17.281 0-31.295 14.18-31.295 31.672v51.595c0-43.112 34.533-56.918 77.129-56.918s77.127 13.805 77.127 56.918V15.04c.001-4.163-3.335-7.54-7.45-7.54z"/><path fill="#37005e" d="M315.001 62.507v-8.252c0-17.492 14.014-31.672 31.295-31.672h-20.688c-17.281 0-31.295 14.18-31.295 31.672v51.595c.001-20.552 7.86-34.432 20.688-43.343z" opacity=".1"/><path fill="#37005e" d="M362.001 49.183v-10.01c0-17.466 14.039-31.673 31.295-31.673h-20.49c-17.256 0-31.295 14.207-31.295 31.672v12.573c6.43-1.365 13.31-2.186 20.49-2.562z" opacity=".1"/><path fill="#ffd5b3" d="M448.569 152.314c0 43.113-34.531 78.061-77.127 78.061s-77.129-34.948-77.129-78.061V105.85c0-43.112 34.533-56.918 77.129-56.918s77.127 13.805 77.127 56.918z"/><path fill="#37005e" d="M315.001 152.314V105.85c0-39.56 29.084-54.433 66.785-56.617-3.386-.196-6.834-.3-10.344-.3-42.596 0-77.129 13.805-77.129 56.918v46.464c0 43.113 34.533 78.061 77.129 78.061 3.51 0 6.958-.26 10.344-.719-37.701-5.119-66.785-37.783-66.785-77.343z" opacity=".1"/><path fill="#d48748" d="M162.458 260.959a73.288 73.288 0 0 1 21.535 14.957c7.549-13.035 19.238-23.367 33.281-29.185 8.475-14.655 13.344-31.681 13.344-49.84v-45.342c0-54.707-44.1-99.214-98.305-99.214-54.203 0-98.301 44.507-98.301 99.214v45.342c0 34.26 17.298 64.512 43.537 82.344a73.324 73.324 0 0 1 24.619-18.276c-24.241-11.513-41.08-36.437-41.08-65.284v-55.311a5.45 5.45 0 0 1 6.82-5.275c7.984 2.075 17.438 3.265 25.936 3.265 20.758 0 40.162-7.212 54.641-20.309a5.44 5.44 0 0 1 3.656-1.408c1.291 0 2.582.456 3.613 1.371 11.137 9.865 26.863 16.923 43.145 19.366a5.451 5.451 0 0 1 4.643 5.39v52.913c0 28.846-16.841 53.77-41.084 65.282z"/><path fill="#ff6a76" d="M186.397 441.333c3.904-15.38 13.86-28.371 27.18-36.277-16.587-9.443-28.387-26.46-30.834-46.423h-5.784c-.634 0-.901-.014-.86-.044-7.852-.452-14.14-6.997-14.14-14.956v-10.789c0-7.497 5.58-13.737 12.789-14.817v-7.665a68.505 68.505 0 0 1 9.245-34.445 73.319 73.319 0 0 0-21.521-14.951c-9.165 4.354-19.383 6.801-30.158 6.801s-20.993-2.447-30.157-6.801c-25.229 11.5-42.819 36.94-42.819 66.427v108.771a5.177 5.177 0 0 0 5.178 5.177h121.881v-.008z"/><path fill="#37005e" d="M114.478 265.476a70.222 70.222 0 0 1-12.321-4.511c-25.229 11.5-42.819 36.94-42.819 66.427v108.771a5.177 5.177 0 0 0 5.178 5.177h20.707a5.178 5.178 0 0 1-5.178-5.177V327.392c-.001-26.095 13.777-49.017 34.433-61.916z" opacity=".1"/><path fill="#ffb98a" d="M132.314 267.766a70.094 70.094 0 0 1-26.973-5.384l7.082 35.623c.41 2.072 2.477 3.768 4.59 3.768h30.605c2.111 0 4.178-1.696 4.59-3.768l7.081-35.624a70.087 70.087 0 0 1-26.975 5.385z"/><path fill="#ffd5b3" d="M132.314 267.766c-39.273 0-71.225-32.34-71.225-72.091v-55.311a5.45 5.45 0 0 1 6.82-5.275c7.984 2.075 17.438 3.265 25.936 3.265 20.758 0 40.162-7.212 54.641-20.309a5.44 5.44 0 0 1 3.656-1.408c1.291 0 2.582.456 3.613 1.371 11.137 9.865 26.863 16.923 43.145 19.366a5.451 5.451 0 0 1 4.643 5.39v52.913c-.001 39.749-31.954 72.089-71.229 72.089z"/><path fill="#37005e" d="M82.001 195.675v-55.311c0-.938.249-1.842.693-2.642-5.106-.55-10.189-1.438-14.785-2.633a5.453 5.453 0 0 0-4.705.964 5.45 5.45 0 0 0-2.115 4.311v55.311c0 39.751 31.951 72.091 71.225 72.091 3.553 0 7.042-.273 10.456-.784-34.333-5.135-60.769-35.151-60.769-71.307z" opacity=".1"/><path fill="#89c947" d="M273.629 405.055a60.48 60.48 0 0 1-30.027 7.951 60.465 60.465 0 0 1-30.024-7.95c-17.339 10.292-28.991 29.197-28.991 50.78v43.487a5.176 5.176 0 0 0 5.176 5.177h107.684a5.176 5.176 0 0 0 5.176-5.177v-43.487c-.002-21.584-11.655-40.489-28.994-50.781z"/><path fill="#37005e" d="M226.31 410.488a60.525 60.525 0 0 1-12.732-5.432c-17.339 10.292-28.991 29.197-28.991 50.78v43.487a5.176 5.176 0 0 0 5.176 5.177h20.415a5.176 5.176 0 0 1-5.176-5.177v-43.487c-.001-18.214 8.297-34.519 21.308-45.348z" opacity=".1"/><g fill="#ffb98a"><path d="M243.602 413.006a60.657 60.657 0 01-17.082-2.458v6.46c0 9.435 7.648 17.084 17.084 17.084s17.084-7.648 17.084-17.084v-6.461a60.654 60.654 0 01-17.086 2.459zM182.254 350.912v-32.786h-7.506v-.1c-7.209 1.08-12.789 7.32-12.789 14.817v10.789c0 8.25 6.75 15 15 15h5.784a63.413 63.413 0 01-.489-7.72zM312.459 318.026v.1h-7.506v32.786c0 2.616-.179 5.189-.489 7.721h5.784c8.25 0 15-6.75 15-15v-10.789c0-7.497-5.58-13.738-12.789-14.818z"/></g><path fill="#ffd5b3" d="M255.83 318.126l-9.086-16.566-12.107 16.566h-52.383v32.786c0 34.294 27.467 62.094 61.348 62.094s61.351-27.8 61.351-62.094v-32.786z"/><path fill="#37005e" d="M203.001 350.912v-32.786h-20.747v32.786c0 34.294 27.467 62.094 61.348 62.094 3.538 0 7-.32 10.374-.902-28.939-4.991-50.975-30.479-50.975-61.192z" opacity=".1"/><path fill="#a75436" d="M243.603 241.506c-38.027 0-68.855 30.827-68.855 68.855v7.765h59.889l12.107-16.566 9.086 16.566h56.629v-7.765c0-38.028-30.828-68.855-68.856-68.855z"/><path fill="#37005e" d="M253.874 242.273a69.267 69.267 0 0 0-10.271-.766c-38.027 0-68.855 30.827-68.855 68.855v7.765h20.542v-7.765c0-34.538 25.43-63.13 58.584-68.089z" opacity=".1"/><path d="M462.989 110.938h-6.92V15.04c0-8.293-6.707-15.04-14.951-15.04h-68.313c-12.399 0-23.451 5.911-30.558 15.082h-16.64c-21.392 0-38.795 17.573-38.795 39.172v56.683h-6.918c-12.406 0-22.5 10.093-22.5 22.5v17.357c0 12.407 10.094 22.5 22.5 22.5h9.501c4.012 16.031 12.52 30.26 24.07 41.264-1.303 2.884-1.177 6.259.372 9.394h-26.492c-8.727 0-15.961 6.427-17.269 14.792a75.978 75.978 0 0 0-26.475-4.739c-4.257 0-8.427.367-12.496 1.04a106.848 106.848 0 0 0 7.011-38.155v-45.342c0-58.842-47.464-106.714-105.805-106.714-58.339 0-105.801 47.872-105.801 106.714v45.342c0 33.93 15.789 64.201 40.336 83.761-9.442 13.185-15.012 29.322-15.012 46.74v108.771c0 6.99 5.688 12.677 12.678 12.677h36.487c4.143 0 7.5-3.358 7.5-7.5s-3.357-7.5-7.5-7.5h-7.884v-67.5c0-4.142-3.357-7.5-7.5-7.5s-7.5 3.358-7.5 7.5v67.5H66.837V327.392c0-24.1 13.096-45.188 32.538-56.554l5.69 28.623c1.107 5.593 6.243 9.811 11.947 9.811h30.605c5.698 0 10.834-4.215 11.946-9.806l5.689-28.628a65.678 65.678 0 0 1 9.429 6.684 75.887 75.887 0 0 0-7.434 32.839v2.21c-7.554 3.632-12.789 11.345-12.789 20.273v10.789c0 12.229 9.809 22.203 21.971 22.486a69.785 69.785 0 0 0 24.132 39.054c-8.896 7.569-15.78 17.433-19.73 28.667h-40.832c-4.143 0-7.5 3.358-7.5 7.5s3.357 7.5 7.5 7.5h37.459a67.08 67.08 0 0 0-.372 6.996v43.487c0 6.99 5.686 12.677 12.676 12.677h107.684c6.989 0 12.676-5.686 12.676-12.677v-43.487a67.11 67.11 0 0 0-.372-6.996h145.787c9.649 0 17.5-7.851 17.5-17.5V303c0-4.142-3.357-7.5-7.5-7.5s-7.5 3.358-7.5 7.5v128.34c0 1.355-1.145 2.5-2.5 2.5h-10.418V309.802c0-4.142-3.357-7.5-7.5-7.5s-7.5 3.358-7.5 7.5V433.84H306.376c-3.95-11.235-10.834-21.099-19.731-28.667a69.786 69.786 0 0 0 24.133-39.054c12.162-.283 21.971-10.257 21.971-22.486v-10.789c0-8.928-5.235-16.641-12.789-20.273v-2.21c0-26.916-14.013-50.606-35.112-64.207v-4.702c0-1.355 1.145-2.5 2.5-2.5h36.106l17.938 27.662c2.321 3.583 5.884 5.637 9.775 5.637 3.89 0 7.452-2.053 9.775-5.635l3.002-4.63v58.358c0 4.142 3.357 7.5 7.5 7.5s7.5-3.358 7.5-7.5v-58.355l3.001 4.628c2.322 3.581 5.885 5.634 9.774 5.634 3.89 0 7.452-2.053 9.775-5.635l17.936-27.664h36.107c1.355 0 2.5 1.145 2.5 2.5V266c0 4.142 3.357 7.5 7.5 7.5s7.5-3.358 7.5-7.5v-24.547c0-9.649-7.851-17.5-17.5-17.5h-26.494c1.549-3.133 1.677-6.509.374-9.394 11.551-11.003 20.059-25.234 24.071-41.265h9.502c12.406 0 22.5-10.093 22.5-22.5v-17.357c-.001-12.406-10.094-22.499-22.501-22.499zM145.303 294.272h-25.976l-4.161-20.931a77.822 77.822 0 0 0 17.147 1.924 77.79 77.79 0 0 0 17.15-1.925zm32.154-33.449c20.288-14.412 33.585-38.232 33.585-65.148v-52.913c0-6.461-4.639-11.848-11.03-12.807-14.887-2.233-29.205-8.635-39.28-17.56a12.934 12.934 0 0 0-8.59-3.259 12.922 12.922 0 0 0-8.688 3.346 68.833 68.833 0 0 1-14.864 10.225 7.5 7.5 0 0 0 6.822 13.359 83.975 83.975 0 0 0 16.745-11.256c11.675 9.831 27.48 16.928 43.885 19.703v51.164c0 35.616-28.589 64.591-63.729 64.591-35.138 0-63.725-28.975-63.725-64.591v-52.7c7.987 1.838 17.042 2.878 25.256 2.878a7.5 7.5 0 0 0 0-15c-7.889 0-16.654-1.102-24.05-3.024-3.825-.992-8.052-.127-11.181 2.291a13.038 13.038 0 0 0-5.025 10.243v55.311c0 26.911 13.292 50.728 33.573 65.14a81.153 81.153 0 0 0-10.485 8.495c-21.379-16.794-35.164-43.007-35.164-72.419V151.55c0-50.571 40.733-91.714 90.801-91.714 50.07 0 90.805 41.143 90.805 91.714v45.342c0 15.948-4.07 30.946-11.188 44.022a76.814 76.814 0 0 0-29.396 23.668 80.275 80.275 0 0 0-5.077-3.759zm-7.998 82.81v-10.789c0-3.369 2.232-6.224 5.295-7.168v25.125c-3.063-.944-5.295-3.8-5.295-7.168zm125.662 112.203V497h-7.518v-33.5c0-4.142-3.357-7.5-7.5-7.5s-7.5 3.358-7.5 7.5V497h-58v-33.5a7.5 7.5 0 0 0-15 0V497h-7.517v-41.164c0-17.388 8.665-32.778 21.897-42.11a68.177 68.177 0 0 0 5.036 2.177v1.105c0 13.556 11.028 24.584 24.584 24.584s24.584-11.028 24.584-24.584v-1.106a67.962 67.962 0 0 0 5.035-2.176c13.234 9.331 21.899 24.722 21.899 42.11zm-60.663-35.962c2.994.404 6.042.632 9.144.632s6.152-.229 9.147-.633c-1.221 3.89-4.859 6.719-9.146 6.719-4.286 0-7.924-2.829-9.145-6.718zm9.144-14.368c-29.691 0-53.848-24.491-53.848-54.594v-25.286h44.883a7.5 7.5 0 0 0 6.056-3.075l5.147-7.044 3.414 6.225a7.501 7.501 0 0 0 6.576 3.894h41.623v25.286c0 30.103-24.158 54.594-53.851 54.594zm74.146-61.873c0 3.369-2.233 6.224-5.295 7.168v-25.125c3.063.944 5.295 3.799 5.295 7.168zm-12.789-33.272v.265h-44.688l-6.95-12.673a7.5 7.5 0 0 0-12.632-.819l-9.86 13.492h-48.58v-.265c0-33.831 27.524-61.355 61.355-61.355s61.355 27.524 61.355 61.355zM372.806 15l68.264.04v48.921c-3.191-3.382-6.878-6.413-11.077-9.073-14.097-8.928-33.795-13.456-58.55-13.456-8.017 0-15.494.483-22.432 1.428v-3.688c0-13.328 10.675-24.172 23.795-24.172zm-70.992 39.254c0-13.329 10.675-24.172 23.795-24.172h9.469a39.461 39.461 0 0 0-1.066 9.09v6.694c-8.032 2.198-15.092 5.204-21.119 9.021-4.199 2.66-7.887 5.692-11.078 9.074v-9.707zm-21.918 104.04c-4.136 0-7.5-3.364-7.5-7.5v-17.357c0-4.136 3.364-7.5 7.5-7.5h6.918v26.376c0 2.013.094 4.002.229 5.98zm71.27 95.826l-15.858-24.456a83.248 83.248 0 0 0 26.785 7.677c-.143.196-.294.38-.428.586zm40.552.002l-10.501-16.196c-.134-.206-.285-.388-.427-.584a83.235 83.235 0 0 0 26.783-7.676zm49.351-101.808c0 38.908-31.234 70.561-69.627 70.561s-69.629-31.653-69.629-70.561V105.85c0-17.623 6.249-30.148 19.104-38.29 11.657-7.384 28.656-11.128 50.524-11.128 21.867 0 38.866 3.744 50.523 11.128 12.854 8.142 19.104 20.667 19.104 38.29v46.464zm29.42-1.52c0 4.136-3.364 7.5-7.5 7.5h-7.149c.136-1.978.229-3.968.229-5.98v-26.376h6.92c4.136 0 7.5 3.364 7.5 7.5z"/><path d="M374.181 154.277h5.912c4.143 0 7.5-3.358 7.5-7.5s-3.357-7.5-7.5-7.5h-2.738v-10.465c0-4.142-3.357-7.5-7.5-7.5s-7.5 3.358-7.5 7.5v13.589c-.001 6.549 5.305 11.876 11.826 11.876zM343.077 130.718v-10.21c0-4.142-3.357-7.5-7.5-7.5s-7.5 3.358-7.5 7.5v10.21c0 4.142 3.357 7.5 7.5 7.5s7.5-3.358 7.5-7.5zM407.308 113.008a7.5 7.5 0 00-7.5 7.5v10.21c0 4.142 3.357 7.5 7.5 7.5s7.5-3.358 7.5-7.5v-10.21a7.5 7.5 0 00-7.5-7.5zM401 168.84a7.5 7.5 0 00-9.75 4.174c-3.113 7.772-10.505 12.793-18.833 12.793-8.33 0-15.724-5.021-18.837-12.793a7.5 7.5 0 10-13.924 5.577c5.405 13.496 18.265 22.216 32.761 22.216 14.494 0 27.352-8.72 32.757-22.216A7.5 7.5 0 00401 168.84zM123.364 188.394c0 6.34 5.137 11.498 11.451 11.498h2.605a7.5 7.5 0 00.943-14.941v-2.804c0-4.142-3.357-7.5-7.5-7.5s-7.5 3.358-7.5 7.5v6.247zM107.048 178.346v-9.328c0-4.142-3.357-7.5-7.5-7.5s-7.5 3.358-7.5 7.5v9.328c0 4.142 3.357 7.5 7.5 7.5s7.5-3.358 7.5-7.5zM165.083 185.846a7.5 7.5 0 007.5-7.5v-9.328c0-4.142-3.357-7.5-7.5-7.5s-7.5 3.358-7.5 7.5v9.328a7.5 7.5 0 007.5 7.5zM116.599 216.122a7.501 7.501 0 00-13.926 5.576c5.037 12.577 17.021 20.703 30.531 20.703 13.511 0 25.494-8.126 30.531-20.703a7.5 7.5 0 00-4.175-9.75 7.5 7.5 0 00-9.751 4.174c-2.743 6.852-9.262 11.279-16.605 11.279-7.344 0-13.862-4.427-16.605-11.279zM245.758 366.008h2.244a7.5 7.5 0 007.5-7.5 7.504 7.504 0 00-5.649-7.27v-1.555a7.5 7.5 0 00-15 0v5.38c0 6.036 4.892 10.945 10.905 10.945zM222.879 346.869v-8.034c0-4.142-3.357-7.5-7.5-7.5s-7.5 3.358-7.5 7.5v8.034a7.5 7.5 0 0015 0zM271.828 331.335a7.5 7.5 0 00-7.5 7.5v8.034a7.5 7.5 0 0015 0v-8.034a7.5 7.5 0 00-7.5-7.5zM267.455 367.798a7.498 7.498 0 00-9.75 4.176c-2.203 5.504-7.439 9.061-13.336 9.061s-11.134-3.557-13.339-9.062a7.5 7.5 0 10-13.924 5.577c4.497 11.229 15.199 18.485 27.263 18.485 12.065 0 22.767-7.256 27.262-18.486a7.5 7.5 0 00-4.176-9.751z"/></svg>