<svg xmlns="http://www.w3.org/2000/svg" width="512" height="512" viewBox="0 0 64 64"><path fill="#c7e2fb" d="M2 2h46v60H2z"/><path fill="#ebf7fe" d="M2 50.68a33.57 33.57 0 0 0 4.5.32C27.21 51 44 31.52 44 7.5a49.85 49.85 0 0 0-.31-5.5H2z"/><path fill="#f7d881" d="M8 6h34v20H8z"/><circle cx="49" cy="49" r="13" fill="#f7d881"/><path fill="#fae8b3" d="M36 49a13 13 0 0 0 5.46 10.57C50.91 57.77 58 50.37 58 41.5a18.46 18.46 0 0 0-.12-2A13 13 0 0 0 36 49z"/><g fill="#f7d881"><path d="M8 30h6v6H8zM8 40h6v6H8zM8 50h6v6H8z"/></g><circle cx="54" cy="52" r="2" fill="#a0a8b2"/><circle cx="44" cy="46" r="2" fill="#a0a8b2"/><path d="M11 11h3v12h2V11h3V9h-8zM25 9a4 4 0 00-4 4v10h2v-4h4v4h2V13a4 4 0 00-4-4zm-2 8v-4a2 2 0 014 0v4zM37 9a8.57 8.57 0 01-2 5.54 7.85 7.85 0 01-2-5.23V9h-2v.31A9.82 9.82 0 0033.63 16 10.54 10.54 0 0031 23h2a8.57 8.57 0 012-5.54 7.85 7.85 0 012 5.23V23h2v-.31A9.82 9.82 0 0036.37 16 10.54 10.54 0 0039 9z"/><path d="M8 27h34a1 1 0 001-1V6a1 1 0 00-1-1H8a1 1 0 00-1 1v20a1 1 0 001 1zM9 7h32v18H9zM8 37h6a1 1 0 001-1v-6a1 1 0 00-1-1H8a1 1 0 00-1 1v6a1 1 0 001 1zm1-6h4v4H9zM14 49H8a1 1 0 00-1 1v6a1 1 0 001 1h6a1 1 0 001-1v-6a1 1 0 00-1-1zm-1 6H9v-4h4zM15.29 37.29L13.59 39H8a1 1 0 00-1 1v6a1 1 0 001 1h6a1 1 0 001-1v-5.59l1.71-1.7zM11.59 41L9 43.59V41zM13 45h-2.59L13 42.41zM17 30h26v2H17zM17 34h26v2H17z"/><path d="M49 35V2a1 1 0 0 0-1-1H2a1 1 0 0 0-1 1v60a1 1 0 0 0 1 1h44a1 1 0 0 0 .6-.22A14.57 14.57 0 0 0 49 63a14 14 0 0 0 0-28zM3 61V3h44v32.16A14 14 0 0 0 38.29 40H17v2h19.89a14.1 14.1 0 0 0-1 2H17v2h18.33a14.14 14.14 0 0 0-.33 3v1H17v2h18.33a13.6 13.6 0 0 0 .61 2H17v2h19.89a14.09 14.09 0 0 0 4.94 5zm46 0a12 12 0 1 1 12-12 12 12 0 0 1-12 12z"/><path d="M54 49a3 3 0 103 3 3 3 0 00-3-3zm0 4a1 1 0 111-1 1 1 0 01-1 1zM47 46a3 3 0 10-3 3 3 3 0 003-3zm-3 1a1 1 0 111-1 1 1 0 01-1 1zM44.087 57.585l7.998-18.006 1.828.812-7.998 18.006z"/></svg>