<svg xmlns="http://www.w3.org/2000/svg" width="512" height="512" viewBox="0 0 512.358 512.358"><path fill="#f79595" d="M407.484 259.57c.061 1.875.099 3.756.099 5.646 0 2.515-.056 5.016-.166 7.504a6.534 6.534 0 0 0 4.687 6.573l24.706 7.219c1.504-8.731 9.746-14.658 18.521-13.261 9.031 0 15.259 7.297 13.839 16.217l-4.299 27.002c-1.408 8.845-9.719 14.873-18.564 13.466-8.775-1.397-14.769-9.59-13.488-18.357l-26.317-.827a6.525 6.525 0 0 0-6.44 4.605 169.272 169.272 0 0 1-18.107 39.682 6.529 6.529 0 0 0 .938 8.098l15.196 15.049c5.72-3.872 13.522-3.696 19.095.946 6.754 5.625 7.669 15.659 2.044 22.413l-7.032 8.444c-5.526 6.635-15.4 8.03-22.231 2.748-5.496-4.25-7.404-11.309-5.414-17.484l-18.746-10.925a6.533 6.533 0 0 0-7.919 1.044c-18.349 18.393-40.882 32.607-66.053 41.094a6.534 6.534 0 0 0-4.437 6.744l2.187 25.609c8.961-1.806 17.729 4.154 19.213 13.319 1.391 8.593-4.537 16.69-13.048 18.518l-27.011 5.803c-8.919 1.916-16.216-3.98-16.216-13.102-1.866-8.688 3.609-17.236 12.247-19.207l-8.744-24.871a6.522 6.522 0 0 0-6.614-4.343c-3.954.277-7.944.419-11.968.419-41.634 0-79.768-14.963-109.337-39.794a6.517 6.517 0 0 0-7.485-.629l-22.627 13.251 3.164 3.416c8.529 9.208 8.633 23.682-.266 32.533-9.343 9.292-24.443 8.917-33.32-.668l-23.838-25.736c-8.529-9.208-8.633-23.683.266-32.533 9.343-9.292 24.443-8.917 33.32.668l3.541 3.823 15.35-22.136a6.519 6.519 0 0 0 .051-7.359c-18.283-27.124-28.956-59.802-28.956-94.974 0-6.808.404-13.52 1.184-20.118a6.535 6.535 0 0 0-4.187-6.898l-24.091-9.031c-2.148 8.595-10.808 13.894-19.455 11.849-9.165 0-14.938-7.297-12.829-16.217l6.421-27.152c2.003-8.471 10.221-14.231 18.783-12.663 9.133 1.672 14.911 10.561 12.921 19.483l26.18 2.78a6.532 6.532 0 0 0 6.769-4.124 169.73 169.73 0 0 1 18.864-35.215 6.523 6.523 0 0 0-.451-8.05l-17.001-19.31c-6.131 6.78-16.724 7.201-23.367.714-6.228-6.082-6.276-16.117-.52-22.647l16.209-18.39c5.922-6.719 16.169-7.364 22.888-1.442 6.666 5.875 7.345 16.004 1.572 22.725l21.819 14.8a6.523 6.523 0 0 0 7.904-.444c25.133-21.495 56.607-35.786 91.227-39.694a6.523 6.523 0 0 0 5.742-5.66l3.245-25.529c-9.14-.116-16.46-7.785-15.986-17.057.445-8.694 7.941-15.365 16.646-15.365h24.061c8.705 0 16.202 6.671 16.646 15.365.474 9.272-6.846 16.941-15.986 17.057l3.323 26.146a6.53 6.53 0 0 0 5.579 5.639c4.734.668 9.398 1.552 13.999 2.601l24.887 7.114a151.496 151.496 0 0 1 87.094 65.79 138.523 138.523 0 0 1 20.089 87.296z"/><path fill="#f37c7c" d="M130.876 263.762c0-82.421 51.411-152.826 123.91-180.92l-2.271-17.861c9.14-.116 16.46-7.785 15.986-17.057-.445-8.694-7.941-15.365-16.646-15.365h-24.062c-8.705 0-16.202 6.671-16.646 15.365-.474 9.272 6.846 16.941 15.986 17.057l-3.245 25.529a6.523 6.523 0 0 1-5.742 5.66c-34.62 3.908-66.093 18.199-91.227 39.694a6.522 6.522 0 0 1-7.904.444l-21.819-14.8c5.773-6.72 5.094-16.849-1.572-22.725-6.719-5.922-16.966-5.276-22.888 1.442l-16.209 18.39c-5.756 6.53-5.708 16.565.52 22.647 6.642 6.487 17.236 6.066 23.367-.714l17.001 19.31a6.525 6.525 0 0 1 .451 8.05 169.73 169.73 0 0 0-18.864 35.215 6.533 6.533 0 0 1-6.77 4.124l-26.18-2.78c1.99-8.922-3.788-17.81-12.921-19.483-8.563-1.568-16.78 4.192-18.783 12.663l-6.421 27.152c-2.109 8.919 3.664 16.217 12.829 16.217 8.647 2.045 17.307-3.254 19.455-11.849l24.091 9.031a6.535 6.535 0 0 1 4.187 6.898 171.522 171.522 0 0 0-1.184 20.118c0 35.172 10.674 67.85 28.957 94.974a6.519 6.519 0 0 1-.051 7.359l-15.35 22.136-3.541-3.823c-8.877-9.584-23.977-9.96-33.32-.668-8.899 8.851-8.795 23.325-.266 32.533l23.838 25.737c8.877 9.584 23.977 9.96 33.32.668 8.899-8.851 8.795-23.325.266-32.533l-3.164-3.416 22.627-13.251a6.517 6.517 0 0 1 7.485.629c28.819 24.201 65.792 39.025 106.193 39.762-61.496-32.529-103.423-97.147-103.423-171.559z"/><g fill="#f37c7c"><circle cx="211.126" cy="354.445" r="37.853"/><circle cx="316.865" cy="304.479" r="18.999"/></g><path fill="#f37c7c" d="M387.398 172.271a151.492 151.492 0 0 0-87.094-65.79l-14.892-4.257-44.631 71.934c-9.584 15.449-10.029 34.156-1.189 50.043 8.839 15.886 24.971 25.37 43.15 25.37h125.404a138.556 138.556 0 0 0-20.748-77.3z"/><path fill="#cbbfbb" d="M475.406 229.571H282.742c-23.033 0-37.108-25.298-24.965-44.869l96.332-155.264c11.491-18.521 38.44-18.521 49.931 0l96.332 155.264c12.142 19.571-1.934 44.869-24.966 44.869z"/><path fill="#fbe98c" d="M288.056 192.806l87.253-140.635c1.732-2.792 5.795-2.792 7.528 0l87.257 140.635c1.831 2.951-.291 6.765-3.764 6.765H291.82c-3.472-.001-5.594-3.815-3.764-6.765z"/><circle cx="189.319" cy="223.671" r="63.272" fill="#f9c6c6"/><g><path d="M248.115 239.338a7.5 7.5 0 00-9.728 4.228c-4.625 11.735-13.271 21.565-24.345 27.682a7.5 7.5 0 007.252 13.13c14.121-7.799 25.147-20.34 31.048-35.313a7.498 7.498 0 00-4.227-9.727zM187.855 169.361a54.295 54.295 0 0135.41 13.152 7.5 7.5 0 109.787-11.367 69.297 69.297 0 00-45.197-16.785c-38.217 0-69.309 31.092-69.309 69.31 0 18.092 6.931 35.21 19.516 48.201 12.553 12.957 29.382 20.433 47.387 21.05a7.499 7.499 0 007.752-7.239 7.499 7.499 0 00-7.238-7.752c-29.393-1.007-52.416-24.841-52.416-54.26 0-29.946 24.362-54.31 54.308-54.31zM211.126 399.798c25.008 0 45.353-20.345 45.353-45.353s-20.345-45.353-45.353-45.353-45.353 20.345-45.353 45.353 20.345 45.353 45.353 45.353zm0-75.705c16.736 0 30.353 13.616 30.353 30.353s-13.616 30.353-30.353 30.353-30.353-13.616-30.353-30.353 13.617-30.353 30.353-30.353zM343.364 304.48c0-14.611-11.888-26.499-26.499-26.499s-26.499 11.888-26.499 26.499 11.888 26.499 26.499 26.499 26.499-11.888 26.499-26.499zm-37.998 0c0-6.341 5.158-11.499 11.499-11.499s11.499 5.158 11.499 11.499-5.158 11.499-11.499 11.499-11.499-5.159-11.499-11.499zM506.744 180.747L410.412 25.483c-6.774-10.918-18.489-17.438-31.338-17.438-12.85 0-24.564 6.52-31.339 17.438l-23.657 38.129a7.501 7.501 0 0012.746 7.908l23.657-38.129c4.019-6.478 10.97-10.346 18.593-10.346 7.622 0 14.573 3.868 18.592 10.346l96.332 155.264c4.247 6.846 4.444 15.135.527 22.174s-11.064 11.241-19.119 11.241H282.742c-8.056 0-15.203-4.202-19.12-11.241-3.916-7.039-3.719-15.328.528-22.174l55.367-89.24a7.5 7.5 0 00-2.419-10.327 7.499 7.499 0 00-10.327 2.419l-55.367 89.24c-7.158 11.538-7.491 25.51-.89 37.375 6.602 11.864 18.649 18.948 32.228 18.948h192.664c13.577 0 25.625-7.083 32.227-18.948 6.601-11.864 6.269-25.837-.889-37.375z"/><path d="M436.937 199.57c0 4.143 3.357 7.5 7.5 7.5h29.854a7.5 7.5 0 0 0 6.373-11.455L385.446 42.15a7.5 7.5 0 0 0-12.746 0l-95.214 153.466a7.502 7.502 0 0 0 6.373 11.455h128.615c4.143 0 7.5-3.357 7.5-7.5s-3.357-7.5-7.5-7.5H297.339l81.734-131.74 81.738 131.74h-16.374a7.499 7.499 0 0 0-7.5 7.499z"/><path d="M379.075 156.301a7.499 7.499 0 00-7.5 7.5v8.113c0 4.143 3.357 7.5 7.5 7.5s7.5-3.357 7.5-7.5v-8.113c0-4.143-3.357-7.5-7.5-7.5zM386.575 95.903c0-4.143-3.357-7.5-7.5-7.5s-7.5 3.357-7.5 7.5v40.141c0 4.143 3.357 7.5 7.5 7.5s7.5-3.357 7.5-7.5z"/><path d="M455.926 265.758c-9.682-1.301-18.939 3.563-23.643 11.617l-17.342-5.066c.095-2.372.143-4.754.143-7.093 0-1.805-.034-3.73-.104-5.888a7.484 7.484 0 0 0-7.738-7.254 7.5 7.5 0 0 0-7.254 7.738c.064 1.994.096 3.762.096 5.403 0 2.364-.054 4.778-.159 7.175a14.01 14.01 0 0 0 10.077 14.102l24.705 7.219a7.503 7.503 0 0 0 9.495-5.926c.805-4.676 5.263-7.878 9.951-7.128.39.062.784.093 1.179.093 2.137 0 3.96.757 5.134 2.132 1.173 1.375 1.635 3.295 1.299 5.406l-4.3 27.003a8.652 8.652 0 0 1-3.489 5.685 8.65 8.65 0 0 1-6.488 1.552c-4.682-.744-7.932-5.17-7.246-9.864a7.497 7.497 0 0 0-7.186-8.581l-26.316-.827c-6.313-.217-11.987 3.869-13.844 9.894a161.885 161.885 0 0 1-17.305 37.925c-3.49 5.604-2.656 12.756 2.026 17.393l15.196 15.049a7.499 7.499 0 0 0 9.481.882c3.083-2.089 7.232-1.883 10.091.497 3.565 2.97 4.051 8.286 1.081 11.851l-7.31 8.778c-2.97 3.564-8.283 4.05-11.851 1.08a8.376 8.376 0 0 1-2.615-9.049 7.498 7.498 0 0 0-3.361-8.781l-18.748-10.927c-5.507-3.208-12.499-2.29-17.003 2.229-17.697 17.739-39.531 31.323-63.14 39.283a14.007 14.007 0 0 0-9.514 14.49l2.188 25.609a7.5 7.5 0 0 0 8.955 6.714 8.654 8.654 0 0 1 10.211 6.576c.498 2.166.078 4.45-1.185 6.435-1.344 2.112-3.49 3.619-5.889 4.134l-27.041 5.811c-2.056.442-3.89.118-5.165-.912-1.274-1.03-1.977-2.755-1.977-4.857 0-.529-.056-1.058-.167-1.576-.996-4.634 1.957-9.263 6.582-10.319a7.498 7.498 0 0 0 5.406-9.798l-8.743-24.871c-2.088-5.936-7.92-9.781-14.213-9.336-3.803.266-7.653.4-11.444.4-38.188 0-75.306-13.509-104.515-38.037-4.525-3.801-10.993-4.347-16.099-1.358l-22.627 13.251a7.498 7.498 0 0 0-1.713 11.568l3.542 3.823c5.862 6.329 5.482 16.249-.848 22.112-6.33 5.861-16.249 5.482-22.112-.848l-24.215-26.144c-5.862-6.329-5.482-16.249.847-22.112a15.532 15.532 0 0 1 11.231-4.156 15.541 15.541 0 0 1 10.88 5.003l3.541 3.823a7.477 7.477 0 0 0 6.03 2.385 7.5 7.5 0 0 0 5.636-3.208l15.35-22.135c3.318-4.785 3.361-10.996.107-15.826a161.979 161.979 0 0 1-16.708-31.939c-.031-.083-.058-.166-.091-.248-7.165-18.546-10.876-38.349-10.876-58.595 0-6.407.381-12.88 1.132-19.238a14.013 14.013 0 0 0-9.002-14.801l-24.091-9.031a7.504 7.504 0 0 0-9.909 5.204c-1.149 4.604-5.844 7.464-10.452 6.369a7.498 7.498 0 0 0-1.727-.201c-2.092 0-3.783-.681-4.761-1.917s-1.251-3.038-.77-5.074l6.428-27.182c.564-2.388 2.116-4.504 4.256-5.804 2.009-1.22 4.299-1.595 6.456-1.051 4.605 1.159 7.401 5.703 6.366 10.345a7.498 7.498 0 0 0 6.529 9.091l26.182 2.78c6.257.676 12.24-2.973 14.542-8.844A162.405 162.405 0 0 1 104 172.222a14.005 14.005 0 0 0-.958-17.316L86.04 135.595a7.501 7.501 0 0 0-5.579-2.544h-.05a7.497 7.497 0 0 0-5.563 2.47c-3.188 3.525-8.514 3.872-12.122.782-1.688-1.445-2.708-3.532-2.873-5.877-.175-2.497.655-4.985 2.278-6.826l16.229-18.413c3.178-3.606 8.694-3.954 12.303-.774 3.556 3.134 3.934 8.611.842 12.211a7.5 7.5 0 0 0 1.48 11.094l21.819 14.8c5.211 3.534 12.198 3.146 16.989-.951 24.757-21.173 54.901-34.292 87.177-37.939a14.006 14.006 0 0 0 12.357-12.17l3.245-25.528a7.5 7.5 0 0 0-7.344-8.444c-4.744-.061-8.604-3.967-8.604-8.707 0-4.807 3.91-8.717 8.716-8.717h24.966c4.806 0 8.716 3.91 8.716 8.717 0 4.74-3.859 8.646-8.604 8.707a7.499 7.499 0 0 0-7.344 8.444l3.323 26.146c.796 6.254 5.719 11.237 11.974 12.12 4.296.605 8.796 1.441 13.375 2.487a7.498 7.498 0 0 0 8.98-5.644 7.499 7.499 0 0 0-5.643-8.981 178.64 178.64 0 0 0-13.899-2.612l-2.358-18.555c8.869-3.447 15.196-12.096 15.196-22.113 0-13.077-10.639-23.717-23.716-23.717H227.34c-13.077 0-23.716 10.64-23.716 23.717 0 10.018 6.327 18.666 15.196 22.113l-2.277 17.917a176.573 176.573 0 0 0-50.918 13.885l-11.252-20.936a7.5 7.5 0 0 0-13.213 7.101l11.007 20.48a178.017 178.017 0 0 0-29.559 20.347l-15.485-10.504c3.279-8.933.975-19.398-6.541-26.022-9.81-8.646-24.826-7.7-33.474 2.109l-16.229 18.413c-4.261 4.833-6.443 11.319-5.988 17.796.448 6.383 3.317 12.144 8.08 16.221 7.623 6.526 18.054 7.43 26.404 3.026l11.903 13.52a177.449 177.449 0 0 0-18.995 35.47l-18.53-1.968c-1.23-9.357-7.997-17.35-17.728-19.8-6.08-1.531-12.439-.544-17.906 2.778-5.55 3.371-9.583 8.901-11.065 15.172L.626 223.077C-.91 229.573.403 236.073 4.23 240.91c3.658 4.625 9.326 7.363 15.652 7.595 9.466 1.875 18.926-2.275 24.163-9.886l16.908 6.338a179.559 179.559 0 0 0-1.15 20.262c0 3.413.099 6.813.291 10.2l-19.344 2.633a7.5 7.5 0 0 0 2.023 14.863l18.802-2.559a176.534 176.534 0 0 0 7.864 32.725l-10.675 5.621a7.502 7.502 0 0 0 3.501 14.139 7.46 7.46 0 0 0 3.487-.865l9.211-4.85a177.383 177.383 0 0 0 14.701 26.701l-9.805 14.14c-5.157-4.28-11.542-6.734-18.352-6.995-8.182-.319-15.992 2.577-21.999 8.141-12.397 11.484-13.141 30.913-1.657 43.31l24.215 26.144c11.484 12.399 30.915 13.142 43.31 1.658 11.387-10.547 12.943-27.796 4.225-40.144l14.214-8.324a176.893 176.893 0 0 0 37.345 23.856l-7.055 16.757a7.5 7.5 0 0 0 13.824 5.82l7.036-16.712c9.296 3.49 18.884 6.2 28.659 8.1v5.702c0 4.143 3.357 7.5 7.5 7.5s7.5-3.357 7.5-7.5v-3.444a177.505 177.505 0 0 0 30.571.639l6.206 17.651c-7.736 5.094-12.083 14.501-10.366 24.031.211 6.311 2.931 12.009 7.536 15.729 3.593 2.903 8.122 4.432 12.892 4.432a23.12 23.12 0 0 0 4.851-.521l27.041-5.811c6.298-1.353 11.909-5.271 15.395-10.749 3.435-5.398 4.553-11.736 3.147-17.847-2.249-9.779-10.101-16.709-19.432-18.131l-1.53-17.923c11.611-3.97 22.813-9.199 33.386-15.511l9.259 12.632a7.487 7.487 0 0 0 6.055 3.067 7.498 7.498 0 0 0 6.043-11.934l-8.793-11.996a177.935 177.935 0 0 0 21.794-18.405l13.614 7.935c-.332 7.195 2.676 14.232 8.413 19.01 9.921 8.264 24.714 6.912 32.975-3.007l7.311-8.778c8.263-9.921 6.913-24.713-3.008-32.976-6.288-5.237-14.818-6.694-22.355-4.214l-10.905-10.799a176.89 176.89 0 0 0 18.287-40.085l18.668.587c2.01 9.301 9.557 16.909 19.45 18.485 6.26.993 12.525-.505 17.653-4.225s8.5-9.214 9.495-15.47l4.3-27.003c1.022-6.422-.692-12.801-4.703-17.5-3.887-4.56-9.673-7.233-15.948-7.391z"/></g></svg>