<svg xmlns="http://www.w3.org/2000/svg" width="512" height="512" viewBox="0 0 512 512"><path fill="#f5f5f8" d="M18 124.365h477.711V512H18z"/><path fill="#cfdae2" d="M256 124.365h239.71V512H256z"/><path fill="#f73" d="M.215 30.962h511.57v123.374H.215z"/><path fill="#194d80" d="M88.769 0h29.973v86.902H88.769z"/><path fill="#ffc34d" d="M256 346.446h-39.978c5.586-7.377 12.569-16.915 21.068-29.059 6.927-9.898 11.921-19.211 13.464-27.962.325-1.845.808-5.568.905-7.438 1.19-23.021-18.754-41.806-41.806-41.806-19.931 0-37.183 14.18-41.021 33.719l-2.888 14.706 29.412 5.776 2.888-14.706c1.083-5.517 5.967-9.521 11.61-9.521 6.268 0 11.939 4.887 11.808 11.069-.011.523-.166 1.562-.266 2.075-.677 3.492-3.145 9.018-8.663 16.903-25.029 35.761-35.996 47.531-36.069 47.608l-4.114 4.318-.094 24.58h83.743v-30.262z"/><path fill="#f93" d="M311.538 285.229c-1.299 0-2.582.068-3.854.176 2.05-2.947 4.357-5.61 6.953-7.943 8.932-8.03 18.232-9.519 18.325-9.534l-.204.027-3.644-29.75c-1.724.211-17.285 2.436-32.673 15.365-13.777 11.577-30.199 34.323-30.199 76.954 0 24.976 20.319 45.295 45.295 45.295s45.294-20.32 45.294-45.295c.001-24.976-20.318-45.295-45.293-45.295zm0 60.617c-8.448 0-15.322-6.874-15.322-15.322s6.874-15.321 15.322-15.321 15.321 6.873 15.321 15.321-6.873 15.322-15.321 15.322z"/><g fill="#f33"><path d="M361.329 403.96l21.19-21.19 29.838 29.837-21.19 21.191zM389.028 303.195h42.203v29.973h-42.203zM361.352 212.434l29.837-29.838 21.191 21.191-29.837 29.838z"/></g><g fill="#f73"><path d="M241.013 183.77h29.973v42.203h-29.973zM101.226 203.753l21.19-21.191 29.838 29.837-21.191 21.191zM82.478 303.195h42.203v29.973H82.478zM101.202 412.588l29.837-29.838 21.191 21.191-29.837 29.838zM.215 30.962h2.346v123.374H.215z"/></g><path fill="#f33" d="M256 30.962h255.786v123.374H256z"/><path fill="#0f2e4d" d="M394.968 0h29.973v86.902h-29.973z"/><path fill="#f33" d="M256 183.77h14.987v42.203H256z"/><path fill="#f73" d="M241.013 410.391h29.973v42.203h-29.973z"/><path fill="#f33" d="M256 410.391h14.987v42.203H256z"/></svg>