<svg xmlns="http://www.w3.org/2000/svg" width="177" height="177" fill="none" viewBox="0 0 177 177"><path fill="#ecce93" d="M11.063 5.531H132.75c6.109 0 11.062 4.954 11.062 11.063v149.344c0 6.109-4.953 11.062-11.062 11.062H11.062C4.954 177 0 172.047 0 165.938V16.594C0 10.484 4.953 5.53 11.063 5.53z"/><path fill="#efefef" d="M11.063 129.509V16.594H132.75v149.344H47.491z"/><path fill="#e76e54" d="M47.491 129.509v36.429l-36.428-36.429zM44.25 22.125V0h55.313v22.125c0 6.11-4.954 11.063-11.063 11.063H55.312c-6.109 0-11.062-4.954-11.062-11.063z"/><path fill="#48c8ef" d="M177 127.219C177 154.712 154.712 177 127.219 177s-49.782-22.288-49.782-49.781 22.289-49.782 49.782-49.782c27.493 0 49.781 22.289 49.781 49.782z"/><path fill="#fff" d="M115.812 148.531l-10.72-10.725a5.533 5.533 0 0 1 0-7.822 5.533 5.533 0 0 1 7.822 0l3.584 3.579 25.051-20.88a5.53 5.53 0 0 1 7.793.708 5.531 5.531 0 0 1-.707 7.793z"/><g fill="#77959e"><path d="M60.844 44.25h44.25a5.532 5.532 0 010 11.063h-44.25a5.531 5.531 0 010-11.063zM33.188 44.25H44.25v11.063H33.187zM33.188 66.375H44.25v11.063H33.187zM33.188 88.5H44.25v11.063H33.187zM33.188 110.625H44.25v11.063H33.187zM60.844 66.375H94.03a5.531 5.531 0 010 11.063H60.844a5.531 5.531 0 010-11.063zM60.844 88.5h11.062a5.531 5.531 0 010 11.063H60.844a5.531 5.531 0 010-11.063z"/></g></svg>