<?xml version="1.0" encoding="iso-8859-1"?>
<!-- Generator: Adobe Illustrator 19.0.0, SVG Export Plug-In . SVG Version: 6.00 Build 0)  -->
<svg xmlns="http://www.w3.org/2000/svg" xmlns:xlink="http://www.w3.org/1999/xlink" version="1.1" id="Layer_1" x="0px" y="0px" viewBox="0 0 511.969 511.969" style="enable-background:new 0 0 511.969 511.969;" xml:space="preserve" width="512" height="512">
<g>
	<g>
		<path style="fill:#576574;" d="M374.262,69.712c-7.997,0-226.451,0-237.866,0c-6.91,0-12.511,5.601-12.511,12.511v19.706    c11.056,0,253.035,0,262.888,0V82.223C386.774,75.314,381.172,69.712,374.262,69.712z"/>
		<path style="fill:#3E4B5A;" d="M156.397,69.712c-10.897,0-18.155,0-20,0c-6.91,0-12.511,5.601-12.511,12.511v19.706    c1.71,0,8.951,0,20,0V82.223C143.885,75.314,149.486,69.712,156.397,69.712z"/>
		<path style="fill:#E4EAF8;" d="M491.302,98.929c-4.42,0-446.001,0-471.946,0c-6.909,0-12.511,5.601-12.511,12.511v372.726    c0,6.91,5.602,12.511,12.511,12.511h471.946c6.91,0,12.511-5.601,12.511-12.511V111.44    C503.814,104.531,498.212,98.929,491.302,98.929z"/>
		<path style="fill:#D8DCE5;" d="M26.845,484.167V111.44c0-6.91,5.602-12.511,12.511-12.511c-10.384,0-17.354,0-20,0    c-6.909,0-12.511,5.601-12.511,12.511v372.726c0,6.91,5.602,12.511,12.511,12.511h20    C32.447,496.678,26.845,491.076,26.845,484.167z"/>
		<path style="fill:#FECA57;" d="M283.479,14.989H227.18c-6.221,0-11.264,5.043-11.264,11.264v98.182h78.826V26.253    C294.742,20.032,289.7,14.989,283.479,14.989z"/>
		<path style="fill:#F4B537;" d="M247.18,14.989h-20c-6.221,0-11.264,5.043-11.264,11.264v98.183h20V26.253    C235.916,20.032,240.959,14.989,247.18,14.989z"/>
		<path style="fill:#54A0FF;" d="M267.103,164.839H71.164c-7.894,0-14.354,6.459-14.354,14.354v254.36    c0,7.895,6.459,14.354,14.354,14.354h195.94c7.895,0,14.354-6.459,14.354-14.354v-254.36    C281.457,171.298,274.998,164.839,267.103,164.839z"/>
		<path style="fill:#338DEF;" d="M72.81,433.553v-254.36c0-7.894,6.459-14.354,14.354-14.354h-16    c-7.895,0-14.354,6.459-14.354,14.354v254.36c0,7.895,6.459,14.354,14.354,14.354h16C79.269,447.906,72.81,441.447,72.81,433.553z    "/>
		<path style="fill:#576574;" d="M168.585,186.963c-32.117,0-58.152,26.035-58.152,58.152v23.012    c3.887-3.603,9.415-5.561,14.813-4.84v-2.898c0-2.304,1.967-4.123,4.247-3.95c22.483,1.615,45.365-5.529,62.665-16.831    c1.615-1.055,3.754-0.793,5.066,0.618c14.791,15.899,14.702,15.283,14.702,17.359v5.69c5.916-0.887,11.164,0.941,14.81,4.331    v-22.492C226.737,212.998,200.703,186.963,168.585,186.963z"/>
		<g>
			<path style="fill:#3E4B5A;" d="M126.041,245.115c0-29.469,21.924-53.801,50.348-57.616c-2.554-0.343-5.156-0.536-7.804-0.536     c-32.117,0-58.152,26.035-58.152,58.152v23.012c3.886-3.603,9.415-5.56,14.813-4.84v-2.898c0-0.895,0.299-1.714,0.796-2.374     V245.115z"/>
		</g>
		<path style="fill:#F2BB88;" d="M211.156,260.964v31.856c0,0.345-0.018,0.686-0.026,1.03c11.273,1.707,20.102-6.438,20.102-16.442    C231.232,267.385,222.395,259.28,211.156,260.964z"/>
		<path style="fill:#F2BB88;" d="M126.016,292.82v-31.843c-9.814-1.311-20.076,6.221-20.076,16.432    c0,9.99,8.809,18.15,20.101,16.441C126.033,293.506,126.016,293.164,126.016,292.82z"/>
		<path style="fill:#E3A76F;" d="M225.259,264.676c-3.603-2.989-8.559-4.542-14.103-3.712v31.856c0,0.345-0.018,0.686-0.026,1.03    c5.561,0.842,10.524-0.716,14.129-3.709V264.676z"/>
		<path style="fill:#E3A76F;" d="M126.016,290.143c-3.705-3.076-5.973-7.669-5.973-12.734c0-4.929,2.395-9.23,5.973-12.217v-4.215    c-9.814-1.311-20.076,6.222-20.076,16.432c0,9.99,8.809,18.15,20.101,16.441c-0.008-0.344-0.025-0.686-0.025-1.03V290.143z"/>
		<path style="fill:#F2BB88;" d="M144.801,327.877v22.822l24.299,29.994l24.299-29.994v-23.466    C178.222,337.703,158.584,336.684,144.801,327.877z"/>
		<path style="fill:#E3A76F;" d="M160.363,333.967c-5.793-1.075-11.019-3.187-15.562-6.09v22.822l15.562,19.209V333.967z"/>
		<path style="fill:#E4EAF8;" d="M257.681,374.054l-64.282-24.895L169.1,379.152l-24.3-29.994l-64.215,24.895    c0,0-23.776,9.775-23.776,36.878v24.622c0.001,7.894,6.46,14.352,14.354,14.352h195.94c7.895,0,14.354-6.459,14.354-14.354    v-24.621C281.457,383.828,257.681,374.054,257.681,374.054z"/>
		<path style="fill:#D8DCE5;" d="M72.372,449.906v-45.977c0-18.596,11.19-29.032,18.217-33.753l-10.003,3.878    c0,0-23.776,9.774-23.776,36.878v24.621C56.81,442.541,61.964,449.906,72.372,449.906z"/>
		<path style="fill:#F2D1A5;" d="M197.225,238.686c-1.313-1.411-3.451-1.673-5.066-0.618c-17.3,11.302-40.182,18.446-62.665,16.831    c-2.28-0.173-4.248,1.647-4.248,3.95v34.741c0,22.328,17.495,42.721,43.959,42.721c23.557,0,42.722-19.165,42.722-42.721v-37.545    C211.926,253.969,212.016,254.584,197.225,238.686z"/>
		<g>
			<path style="fill:#F2BB88;" d="M140.808,293.59v-38.601c-3.764,0.2-7.545,0.181-11.314-0.09c-2.28-0.173-4.248,1.647-4.248,3.95     v34.741c0,26.779,24.12,46.689,51.121,42.109C156.21,332.281,140.808,314.705,140.808,293.59z"/>
		</g>
		<path style="fill:#D8DCE5;" d="M198.439,394.564l18.17-36.416l-23.211-8.989L169.1,379.152l23.691,16.825    C194.708,397.34,197.389,396.669,198.439,394.564z"/>
		<path style="fill:#D8DCE5;" d="M139.794,394.564l-18.17-36.416l23.211-8.989l24.299,29.994l-23.691,16.825    C143.525,397.34,140.845,396.669,139.794,394.564z"/>
		<path style="fill:#EE5253;" d="M169.131,379.173v-0.021l-0.015,0.01l-0.015-0.01v0.021l-17.231,12.238l8.145,12.258    c6.568,0,11.633,0,18.202,0l8.145-12.258L169.131,379.173z"/>
		<path style="fill:#D83941;" d="M177.739,385.287l-8.608-6.114v-0.021l-0.014,0.01l-0.015-0.01v0.021l-17.231,12.238l8.145,12.258    c6.338,0,11.259,0,17.245,0l-6.688-10.065c-0.812-1.222-0.507-2.868,0.69-3.718L177.739,385.287z"/>
		<path style="fill:#FF6B6B;" d="M160.016,403.669l-6.263,46.237h30.727l-6.263-46.237    C171.647,403.669,166.586,403.669,160.016,403.669z"/>
		<path style="fill:#EE5253;" d="M160.016,403.669l-6.263,46.237h17.246l6.263-46.237    C171.249,403.669,166.377,403.669,160.016,403.669z"/>
		<path style="fill:#54A0FF;" d="M440.837,181.1h-98.23c-6.125,0-11.09,4.965-11.09,11.09v7.036c0,6.125,4.965,11.09,11.09,11.09    h98.23c6.125,0,11.091-4.965,11.091-11.09v-7.036C451.928,186.065,446.962,181.1,440.837,181.1z"/>
		<path style="fill:#338DEF;" d="M440.838,194.119h-98.23c-4.49,0-8.347-2.673-10.092-6.51c-0.635,1.398-0.999,2.945-0.999,4.581    v7.036c0,6.125,4.965,11.09,11.09,11.09h98.23c6.125,0,11.09-4.965,11.09-11.09v-7.036c0-1.635-0.363-3.183-0.999-4.581    C449.184,191.446,445.327,194.119,440.838,194.119z"/>
	</g>
	<g>
		<path d="M71.818,157.49c-12.05,0-21.854,9.803-21.854,21.854v231.739v24.621c0,12.05,9.804,21.854,21.854,21.854    c7.583,0,187.145,0,195.939,0c12.05,0,21.854-9.803,21.854-21.854v-24.621V179.344c0-12.05-9.804-21.854-21.854-21.854H71.818z     M146.508,442.557H105.43v-22.158c0-4.142-3.357-7.5-7.5-7.5s-7.5,3.358-7.5,7.5v22.158H71.818c-3.779,0-6.854-3.075-6.854-6.854    v-24.621c0-21.266,17.907-29.411,19.089-29.925l34.563-13.4l15.122,30.306c3.093,6.2,11.016,8.218,16.702,4.18l0.121-0.086    l2.219,3.34L146.508,442.557z M145.247,387.534l-12.581-25.215l10.41-4.032l15.833,19.542    C158.558,378.078,146.042,386.969,145.247,387.534z M133.4,293.741v-31.014c21.439,0.682,43.257-5.724,60.993-16.63    c5.635,6.04,9.113,9.69,10.688,11.479c0,14.082,0,21.337,0,36.165c0,19.185-15.632,35.222-35.222,35.222    C148.432,328.963,133.4,312.526,133.4,293.741z M130.715,247.572c-4.778-0.362-9.49,2.336-11.449,7.071    c-0.227,0.04-0.452,0.083-0.678,0.129v-9.505c0-27.93,22.722-50.653,50.651-50.653s50.652,22.723,50.652,50.653v8.41    c-0.414-2.136-1.818-3.93-3.24-5.604c-2.101-2.475-5.041-5.486-13.281-14.344c-3.811-4.096-9.977-4.849-14.659-1.788    C171.36,243.275,150.21,248.971,130.715,247.572z M169.771,367.369l-16.816-20.757v-5.285c10.39,3.381,22.587,3.682,33.599-0.217    v5.544L169.771,367.369z M176.746,393.468l-1.895,2.853h-10.158l-1.896-2.852l6.975-4.953L176.746,393.468z M161.721,442.557    l5.287-31.237h5.527l5.287,31.237H161.721z M180.613,377.815l15.828-19.538l10.436,4.042l-12.581,25.215    C194.295,387.533,180.672,377.857,180.613,377.815z M274.611,435.704c0,3.779-3.074,6.854-6.854,6.854h-18.61v-22.158    c0-4.142-3.357-7.5-7.5-7.5s-7.5,3.358-7.5,7.5v22.158h-41.112l-6.273-37.06l2.219-3.34l0.122,0.087    c5.676,4.03,13.6,2.036,16.701-4.18l15.121-30.305l34.602,13.401c1.014,0.439,19.084,8.602,19.084,29.923V435.704z     M274.611,179.344v196.925c-6.547-6.09-12.877-8.776-13.424-9c-0.048-0.02-0.095-0.039-0.143-0.057l-59.491-23.04v-11.508    c9.224-7.525,15.725-18.258,17.803-30.48c12.513-1.881,20.8-12.266,20.8-23.854c0-5.514-1.886-10.793-5.266-15.019v-18.044    c0-36.201-29.451-65.653-65.652-65.653c-36.2,0-65.651,29.452-65.651,65.653v18.518c-3.416,4.17-5.264,9.209-5.264,14.545    c0,11.789,8.558,22.08,20.787,23.879c2.129,12.728,8.996,23.695,18.844,31.193v10.771l-59.426,23.039    c-0.047,0.018-0.094,0.037-0.141,0.056c-0.547,0.225-6.876,2.91-13.424,9V179.344c0-3.779,3.074-6.854,6.854-6.854h195.939    C271.537,172.49,274.611,175.565,274.611,179.344z M220.081,286.473v-16.266c3.3,1.65,5.076,4.837,5.076,8.124    C225.157,281.783,223.22,284.923,220.081,286.473z M118.4,270.658v15.816c-3.204-1.582-5.076-4.763-5.076-8.144    C113.324,275.05,115.464,272.278,118.4,270.658z"/>
		<path d="M452.583,245.242H332.172c-4.143,0-7.5,3.358-7.5,7.5s3.357,7.5,7.5,7.5h120.411c4.143,0,7.5-3.358,7.5-7.5    S456.726,245.242,452.583,245.242z"/>
		<path d="M452.583,284.731H332.172c-4.143,0-7.5,3.358-7.5,7.5s3.357,7.5,7.5,7.5h120.411c4.143,0,7.5-3.358,7.5-7.5    S456.726,284.731,452.583,284.731z"/>
		<path d="M452.583,324.221H332.172c-4.143,0-7.5,3.358-7.5,7.5s3.357,7.5,7.5,7.5h120.411c4.143,0,7.5-3.358,7.5-7.5    S456.726,324.221,452.583,324.221z"/>
		<path d="M452.583,363.71H332.172c-4.143,0-7.5,3.358-7.5,7.5s3.357,7.5,7.5,7.5h120.411c4.143,0,7.5-3.358,7.5-7.5    S456.726,363.71,452.583,363.71z"/>
		<path d="M452.583,403.2H332.172c-4.143,0-7.5,3.358-7.5,7.5s3.357,7.5,7.5,7.5h120.411c4.143,0,7.5-3.358,7.5-7.5    S456.726,403.2,452.583,403.2z"/>
		<path d="M460.083,192.341c0-10.25-8.34-18.59-18.591-18.59h-98.23c-10.25,0-18.59,8.339-18.59,18.59v7.037    c0,10.251,8.34,18.59,18.59,18.59h98.23c10.251,0,18.591-8.339,18.591-18.59V192.341z M445.083,199.377    c0,1.979-1.61,3.59-3.591,3.59h-98.23c-1.979,0-3.59-1.611-3.59-3.59v-7.037c0-1.979,1.61-3.59,3.59-3.59h98.23    c1.98,0,3.591,1.61,3.591,3.59V199.377z"/>
		<path d="M491.957,91.581h-97.028v-9.206c0-11.034-8.978-20.011-20.012-20.011h-72.02V26.404c0-10.346-8.417-18.764-18.764-18.764    h-10.649c-4.143,0-7.5,3.358-7.5,7.5s3.357,7.5,7.5,7.5h10.649c2.075,0,3.764,1.688,3.764,3.764c0,14.184,0,79.981,0,90.683    h-63.826c0-10.405,0-80.28,0-90.683c0-2.075,1.688-3.764,3.764-3.764h10.649c4.143,0,7.5-3.358,7.5-7.5s-3.357-7.5-7.5-7.5    h-10.649c-10.347,0-18.764,8.417-18.764,18.764v35.959h-72.021c-11.034,0-20.011,8.977-20.011,20.011v9.206H20.011    C8.977,91.581,0,100.557,0,111.591v372.727c0,11.034,8.977,20.011,20.011,20.011h471.946c11.034,0,20.012-8.977,20.012-20.011    V328.079c0-4.142-3.357-7.5-7.5-7.5s-7.5,3.358-7.5,7.5v156.239c0,2.763-2.248,5.011-5.012,5.011H20.011    c-2.763,0-5.011-2.248-5.011-5.011V111.591c0-2.763,2.248-5.011,5.011-5.011h189.061v10.506h-0.933c-4.143,0-7.5,3.358-7.5,7.5    s3.357,7.5,7.5,7.5c10.064,0,85.86,0,95.69,0c4.143,0,7.5-3.358,7.5-7.5s-3.357-7.5-7.5-7.5h-0.932v-10.506h189.06    c2.764,0,5.012,2.248,5.012,5.011v181.487c0,4.142,3.357,7.5,7.5,7.5s7.5-3.358,7.5-7.5V111.591    C511.969,100.557,502.991,91.581,491.957,91.581z M209.071,91.58H132.04v-9.206c0-2.763,2.248-5.011,5.011-5.011h72.021V91.58z     M379.929,91.58h-77.031V77.363h72.02c2.764,0,5.012,2.248,5.012,5.011V91.58z"/>
	</g>
</g>















</svg>
