<svg xmlns="http://www.w3.org/2000/svg" width="512" height="512" viewBox="0 0 512 512"><clipPath id="a"><path d="M0 0h512v512H0z"/></clipPath><g fill="#537796" clip-path="url(#a)"><circle cx="16.499" cy="16.499" r="16.499" transform="translate(414.628 351.982)"/><path d="M382.581 429.63a11.032 11.032 0 0 1-5.424 1.461 10.849 10.849 0 0 1-4.47-.978l-28.981-13.014a10.753 10.753 0 0 1-6.21-7.719c-2.286-10.5 12.3-31.522 25.952-48.4h-4.35a11.944 11.944 0 0 0-6-10.334V186.991l16.532-9h33v-22.864H6.9v22.865H39l16.532 9h-.882v163.657a11.944 11.944 0 0 0-6 10.334h-18.2v9H0v36h115.692a17.957 17.957 0 0 0 27.44 8.609 63.285 63.285 0 0 0 19.79 10.91c10.787 3.75 40.588 3.825 58.347 11.264s39.787 27.017 78.527 34.1c48.612 8.886 103.392 3.108 107.907-14.738 3.243-12.824-2.16-30.175-14.456-43.336-2.939 8.165-6.467 14.477-10.666 16.838zm-243.449-78.981a11.944 11.944 0 0 0-6 10.334h-27.487a11.944 11.944 0 0 0-6-10.334V186.991h39.487zm84.484 0a11.951 11.951 0 0 0-6 10.334h-27.487a11.944 11.944 0 0 0-6-10.334V186.991h39.488zm84.484 0a11.95 11.95 0 0 0-6 10.334h-27.483a11.944 11.944 0 0 0-6-10.334V186.991h39.487z"/><path d="M511.61 82.01c-5.331-2.394-64.386 117.524-102.175 201.672-13 28.945-21.791 49.887-27.514 65.006l16.514 7.416c7.5-14.318 17.312-34.8 30.313-63.749 37.789-84.146 88.195-207.949 82.862-210.345zM346.781 410.257c3.93 1.767 25.049 11.249 28.978 13.016 12.194 5.475 20.75-62.876 20.75-62.876l-16.514-7.419s-45.409 51.804-33.214 57.279zM105.837 147.507h197.858l-98.928-72.885z"/><path d="M91.231 147.093l113.54-83.65 113.537 83.65-.305.414h36.758L204.764 37 54.773 147.507h36.758z"/></g></svg>