<svg width="40" height="40" viewBox="0 0 40 40" fill="none" xmlns="http://www.w3.org/2000/svg">
<g clip-path="url(#clip0)">
<path d="M14.3513 16.7787H25.6482C26.2954 16.7787 26.8201 16.254 26.8201 15.6068V13.0964C26.8201 11.3635 26.1701 9.77971 25.1015 8.57526C23.88 10.0339 22.0467 10.9635 19.9998 10.9635C17.9528 10.9635 16.1196 10.0339 14.898 8.57526C13.8294 9.77971 13.1794 11.3635 13.1794 13.0964V15.6068C13.1794 16.254 13.7041 16.7787 14.3513 16.7787Z" fill="#567351"/>
<path d="M20.0008 8.61977C22.3773 8.61977 24.3108 6.68641 24.3108 4.30992C24.3108 1.93344 22.3773 0 20.0008 0C17.6244 0 15.6909 1.93344 15.6909 4.30992C15.6909 6.68641 17.6244 8.61977 20.0008 8.61977Z" fill="#567351"/>
<path d="M13.6103 20.7389C12.3971 19.5257 10.4301 19.5257 9.21688 20.7389C8.00367 21.9521 8.00367 23.9191 9.21688 25.1323L12.0421 27.9579C12.4998 28.4155 12.4998 29.1575 12.0421 29.6152C11.5845 30.0727 10.8424 30.0729 10.3848 29.6152L10.3848 29.6151L5.36406 24.5943C5.1443 24.3745 5.02078 24.0764 5.02078 23.7656V13.8073C5.02078 12.4203 3.89922 11.2969 2.51039 11.2969H1.17188C0.524687 11.2969 0 11.8216 0 12.4688V27.5312C0 27.8421 0.123438 28.1401 0.343281 28.3598L7.53125 35.5479V38.8281C7.53125 39.4753 8.05594 40 8.70312 40H17.4895C18.1367 40 18.6614 39.4753 18.6614 38.8281V28.8755C18.6614 26.8862 17.8867 25.0159 16.4802 23.6095L13.6103 20.7389Z" fill="#567351"/>
<path d="M38.8276 11.2969H37.489C36.1002 11.2969 34.9786 12.4204 34.9786 13.8073V23.7656C34.9786 24.0764 34.8552 24.3745 34.6353 24.5943L29.6145 29.6151L29.6145 29.6152C29.157 30.0729 28.4149 30.0727 27.9572 29.6152C27.4995 29.1575 27.4995 28.4155 27.9572 27.9579L30.7824 25.1323C31.9956 23.9191 31.9956 21.9521 30.7824 20.7389C29.5692 19.5257 27.6022 19.5257 26.389 20.7389L23.5191 23.6095C22.1126 25.0159 21.3379 26.8862 21.3379 28.8755V38.8281C21.3379 39.4753 21.8626 40 22.5098 40H31.2962C31.9434 40 32.468 39.4753 32.468 38.8281V35.5479L39.6561 28.3598C39.8759 28.1401 39.9994 27.842 39.9994 27.5312V12.4688C39.9995 11.8216 39.4748 11.2969 38.8276 11.2969Z" fill="#567351"/>
</g>
<defs>
<clipPath id="clip0">
<rect width="40" height="40" fill="white"/>
</clipPath>
</defs>
</svg>
