<svg fill="none" height="164" viewBox="0 0 511 164" width="511" xmlns="http://www.w3.org/2000/svg"><path d="m138.465 0c0 .380138.095.665241-.095 1.04538-.095.19007-.095.38014 0 .5702.095.19007.19.47518.19.66525v2.94606c0 .28511 0 .47517-.19.66524-.095.19007-.095.28511-.095.47518v5.22689c0 .3801.19.5702.38.8553 0 .095.095.095.19.095.285 0 .57.1901.856.3802.19.095.19.2851.19.4752 0 .095 0 .19-.095.19-.381.5702-.476 1.2355-.476 1.9007v1.3305c0 .1901.286.4752.476.4752.285 0 .57 0 .95.095.095.2851.285.4752.38.7603-.19.2851-.285.6652-.285.9503v1.5206c0 .19 0 .3801.095.4751.19.2851.095.3802 0 .6653-.19.3801-.475.7603-.57 1.2354-.095.3802 0 .8553 0 1.2355 0 .19 0 .3801-.095.4751-.095.2851-.19.5703-.19.7603v2.0908c0 .19.095.2851.285.2851s.38 0 .475.095c.285.095.38.2851.475.4752.095.2851 0 .5702.095.7603.19.4751.38.9503.57 1.4255-.095.095-.285.2851-.38.3801-.19.2851-.19.6653.19.8553.38.1901.761.1901 1.046.3802.475 0 .95.2851 1.425.3801.19.1901.475.1901.761.1901.475.095.76.4751.57.9503-.095.2851-.19.4752-.19.7603 0 .1901 0 .3801-.095.4752-.19.2851-.19.6652-.19 1.0453v1.1405c0 .095 0 .2851-.095.3801-.286.3801-.191.8553-.191 1.3305v1.3305c0 .2851 0 .4751-.19.6652-.095.095-.095.2851-.095.3801v1.0454c0 .1901 0 .3801.095.4752.095.095.285.095.381.095.095.0951.285.0951.38.1901s.19.2851.095.3801c-.19.3802-.19.7603-.19 1.1404 0 .3802 0 .6653-.19 1.0454-.096.0951-.095.3802-.095.4752v1.1404c0 .095-.001.2851-.096.3801-.285.3802-.19.8553-.19 1.3305v.8553c0 .3802 0 .6653-.19 1.0454s-.095.8553-.095 1.2355c0 .095.095.19.19.2851.095.095.19.19.381.19.19.0951.285.2851.19.4752v.095c-.286.3802-.19.7603-.19 1.1404v1.4256c0 .2851-.001.5702-.191.7602-.095.1901-.095.3802-.095.5702v2.2809c0 .19 0 .3801-.095.4751-.38.4752-.19 1.0454-.19 1.6156 0 .1901.095.3802.285.4752.095.095.285.1901.381.2851.095.4752 0 .8553 0 1.2354v.1901c-.381.5702-.191 1.2355-.191 1.8057 0 .3801 0 .7602-.19 1.1404-.095.095-.095.3801-.095.4752v1.3304c0 .3802 0 .6653-.19.9504-.095.095-.095.1901-.095.2851v1.7106c.19.2851.475.4752.666.6652.095.0951.095.2851.095.3802-.381.5702-.476 1.2354-.476 1.9957 0 .2851 0 .5702-.19.7603-.095.19-.095.3801-.095.5702v4.9418c0 .2851.095.5702.285.7602.19.0951.285.2852.285.5703v1.3304c0 .0951 0 .2851-.095.3802-.19.3801-.19.7603-.19 1.1404v1.3305c0 .095 0 .2851-.095.3801-.285.3801-.19.7603-.19 1.1404v1.3305c0 .1901-.095.4752-.095.7603.095.095.285.2851.38.4752.095.2851.19.4751.095.7602-.095.3802-.095.7603-.095 1.1404 0 .3802.095.8553-.19 1.2355-.095.095-.095.2851-.095.3801v1.8057c0 .2851 0 .5702-.19.9503-.095.0951-.095.3802-.095.4752v1.5205c0 .1901 0 .3802-.095.4752-.19.3802-.19.7603-.19 1.2352 0 .38.095.666.57.761.19 0 .19.19.19.285v1.045c0 .095 0 .19-.095.285-.285.38-.19.76-.19 1.236v1.33c0 .285 0 .57-.19.76-.095.095-.095.285-.095.476v1.425c0 .19 0 .38-.095.57-.095.095-.095.285-.095.38v.476c.285.19.665.38.95.57.095.95 0 1.805 0 2.756-.19.285-.475.475-.76.76-.095.38 0 .855 0 1.33v.096c.38.76.19 1.52.19 2.28v.19c0 .19.095.381.19.476s.095.285 0 .38c-.285.38-.285.76 0 1.14.095.19.095.285.095.475v1.616c0 .19 0 .38.095.475.19.38.19.76.19 1.14 0 .476-.095.856.19 1.331.095.095 0 .285 0 .38 0 .19 0 .38.096.475.285.475.19.951.19 1.426v.38c0 .19.095.38.285.57s.285.38.285.665v.476c0 .475.095.57.665.57.285 0 .475 0 .665-.19s.475-.095.666-.095c.285 0 .475-.285.57-.571 0-.38 0-.665 0-1.045 0-5.132 0-30.2636 0-35.3955 0-.3801 0-.6652 0-1.0454 0-.2851.19-.3801.38-.3801h1.805 1.331c.285 0 .57-.2851.57-.5702 0-.0951 0-.2851 0-.3802 0-.19.095-.2851.285-.3801.095-.095.19-.095.285-.095.476.2851.951.19 1.426.19h.665c.285 0 .38-.2851.665-.19.19.095.381.19.571.19h.475 1.9.476c.095 0 .19.0951.19.1901 0 .1901 0 .3801.095.4752 0 .2851.19.4751.475.4751.57.1901 1.14.3802 1.711.2852.57-.0951 1.14 0 1.615 0 .19 0 .285.19.285.3801v1.2354.2851c-.19.3802-.19.7603-.19 1.1404v31.5939.095c-.095.571.095 1.046.475 1.426.19.19.285.475.285.76.095.57.476.951 1.141.951h1.14c.285 0 .57.285.57.57v.665 2.566.665c0 .095.191.285.286.285h1.235.095c.095 0 .095-.095.095-.095 0-.38.285-.665.57-.95.095-.095.19-.19.285-.38 0-.38 0-.761 0-1.141 0-2.471 0-4.941 0-7.412 0-.285 0-.666 0-.951 0-.095.095-.095.095-.19s.19 0 .286 0c0 0 0 .095.095.095.095.19.19.285.38.285h.95c.095.095.19.095.285.19.57.666.475.571 1.331.19.19-.095.285-.095.475-.095h1.045.665c0-.19.095-.285.095-.38s.095-.19.095-.285c.096-.095.286-.19.381-.19.095.095.285.19.285.285 0 .38 0 .665.095 1.046 0 .095 0 .285.095.38 0 .095.095.095.095.095.095 0 .19.095.285.095h3.991c.285 0 .476-.095.666-.285.095-.095.19-.19.38-.19.285-.095.475.095.57.285 0 .285 0 .57.095.855.285.19.665.285.95.475s.475.38.761.475c.19.095.38.286.38.571v1.9c0 .095 0 .285.095.38 0 .095.095.095.19.095.19.096.38.096.57 0 .095 0 .095-.095.095-.095 0-.095.095-.19.095-.285 0-.38 0-.665 0-1.045 0-.19 0-.38 0-.475 0-.19.285-.475.475-.475.285 0 .57.285.57.57v1.045c.096.19.286.285.381.475.095.095.19.285.38.381 0 .095-.095.19-.095.285-.095.19-.19.285-.19.475v1.14c0 .285 0 .57.19.856.19.285.095.57-.095.855-.095.095-.095.285-.095.38v1.14c0 .095.095.19.095.285.19.286 0 .476-.095.761 0 .285.285.38.285.665h.19c.095-.19.285-.38.285-.665 0-.19 0-.475-.095-.57-.19-.286-.19-.571-.19-.856 0-.475-.095-.855.095-1.33 0-.095 0-.095 0-.19-.19-.285-.095-.666-.095-1.046s-.095-.855 0-1.235 0-.76 0-1.141c0-.38 0-.855 0-1.235s0-.76 0-1.14c0-.381 0-.856 0-1.236 0-.475.095-1.045-.19-1.52 0-.095 0-.095 0-.19 0-.666 0-1.236 0-1.901 0-.095.095-.285.285-.285h.38 6.177.38c.286 0 .476.285.571.57 0 .19 0 .38.095.475.095.19.19.38.475.38.19.095.475.095.665.095.19.285.285.57.475.856.19.285.38.38.665.38 1.141 0 1.046 0 1.046 1.045v14.255 1.046c0 .19.095.285.19.285.19.095.475 0 .475-.19 0-.095 0-.19 0-.285 0-.286 0-.666 0-.951 0-3.706 0-7.412 0-11.119 0-.38 0-.76 0-1.14.38-.38.665-.76 1.236-1.046.19-.095.285-.285.475-.38.095-.095.095-.19.095-.285 0-.475.38-.855.76-1.045s.57-.475.57-.856c0-.285.285-.475.285-.76s.19-.475.38-.665c.095-.095.191-.285.286-.475.19-.19.38-.285.57-.38.095-.095.285-.095.38-.19.19-.095.285-.095.475-.095h1.14c.476-.095.856.19 1.141.38.38.285.665.57.855.95.19.475.475.855.57 1.331 0 .285.571.475.856.38.095-.095.19-.19.285-.285s.285-.191.475-.191h.38 3.611.571c.38.286.665.666 1.14.856.285.095.38.38.19.665-.285.475-.19.95-.19 1.426v1.14c0 .19 0 .38-.19.57-.19.285 0 .475.285.665.095.095.285 0 .38-.19 0-.285 0-.665.095-.95 0-.19.095-.38.19-.475s.19-.19.38-.19h1.141c.19.095.285.285.475.38.285.285.665.38 1.045.19.095-.095.191-.095.286-.095h1.14c.095 0 .285.095.38.095s.19.095.285 0c.19 0 .665-.475.665-.76 0-.19 0-.38 0-.475 0-1.141 0-2.186 0-3.327 0-.285 0-.57-.19-.95s-.19-.855.095-1.331c.286-.475.381-.95.381-1.52 0-.38.095-.855-.191-1.236-.095-.475-.19-1.045.096-1.52.095-.095.095-.285.19-.38.19-.19.19-.38.19-.57 0-.286 0-.666 0-.951 0-.19.095-.285.19-.475.095-.095.19-.19.38-.095s.285.095.475.19.38-.095.475-.285c0-.285 0-.475 0-.76-.095-.665.19-1.236.475-1.806.19-.475.38-.855.666-1.235.285-.381.57-.761.855-1.141.19-.19.285-.475.475-.665.095-.285.095-.38 0-.665-.095-.19-.095-.38-.095-.57 0-.095.095-.286.19-.381s.285-.285.38-.38c.38.285.475.57.475.951v1.33c.095.095.095.19.191.285.475.38.855.951 1.14 1.426s.665.76.855 1.33c0 .095.095.285.095.38 0 .285 0 .571.19.761.095.095.095.285.095.38v.76c0 .19.19.285.38.19.096 0 .096-.095.191-.095.285-.095.57.095.665.285 0 .095.095.19 0 .285-.095.57.095 1.141.475 1.616.095.095.095.285.095.475v2.376c0 .38 0 .76.19 1.14.095.19.095.475.095.761v4.751.856c0 .285.095.475.38.665.57.285 1.046.19 1.616 0 .285-.095.475-.38.855-.57.57-.095 1.141 0 1.806 0 .285 0 .57.285.57.665v.855 4.942.855c0 .095.095.19.19.19s.19.095.285.095c.475 0 .855.095 1.236.476.095.38 0 .76 0 1.14v1.045c0 .19.19.38.38.476h.285c.19-.096.38-.191.57-.191h3.992c.095.095.19.191.285.286.285.38.665.57 1.14.57.095 0 .095.095.19.095.19.285.095.57.095.855v4.467.855c0 .475.19.665.57.95h.19c.19-.095.286-.19.286-.38 0-.38 0-.665 0-1.045 0-6.653 0-13.21 0-19.862 0-.38 0-.666 0-1.046 0-.19.095-.285.19-.285.19 0 .38-.095.475.095.19.095.285.285.475.38.095.095.285 0 .285-.19 0-.095 0-.285 0-.38-.095-.285-.285-.475-.38-.76-.095-.095-.095-.285 0-.38.19-.19.19-.475.19-.666 0-1.045 0-1.995 0-3.041 0-.475-.095-1.045.19-1.52.095-.19.095-.38.095-.57 0-.095.095-.095.095-.095.095 0 .285-.095.38-.095h1.521c.285 0 .38-.095.475-.476 0-.285 0-.57 0-.855 0-1.235 0-2.471 0-3.611 0-.285 0-.475 0-.76 0-.096.095-.191.19-.286.38-.285.855-.19 1.235-.475h.191c.095 0 .095.095.19.095.095.095.19.19.38.19.095-.095.19-.19.38-.285.475-.38.475-.38.855.095.095.095.19.19.38.19.571-.285 1.141-.19 1.711-.19.19 0 .38.285.475.38 0 .19 0 .381.095.476v2.851c0 .285 0 .475-.095.76-.095.19.095.38.19.57 0 .095.19.095.285.095.475 0 .666.285.761.76v.095c0 .095.095.19.19.19h.76c.285 0 .57.286.57.571v.665c0 .095 0 .285.095.38.285.38.19.855.19 1.331v3.041c0 .475.19.665.665.76h.096c.38.095.475.285.57.665v.951 14.73.95c0 .19.095.285.285.285.095 0 .19-.095.285-.19.095-.19.19-.38.095-.665-.095-.19-.095-.475-.095-.76 0-4.942 0-9.979 0-14.921 0-.19 0-.38 0-.665 0-.19.285-.38.38-.38h.285c.76 0 .76-.095.76-.855 0-.285 0-.571.191-.761.095-.095.095-.285.095-.475 0-.38 0-.855 0-1.235 0-.19-.096-.38-.191-.57-.19-.286-.095-.571.096-.761.19-.19.38-.38.38-.76 0-.19.19-.38.19-.57s0-.38.095-.665c.095 0 .285-.096.38-.096h1.425c.476 0 .666-.285.666-.76 0-.095 0-.285 0-.38 0-1.14 0-2.376 0-3.516 0-.19.095-.38 0-.475-.19-.381 0-.666.19-.951.095-.095.285-.095.38-.095h1.805c.096 0 .286 0 .381.095.38.285.855.19 1.33.19h1.045c.381 0 .381.19.381.476v1.235 2.281c0 .19 0 .38.095.57.19.095.38.19.57.19.38-.095.76-.19 1.235-.095.095 0 .285.095.285.285 0 .38 0 .665-.285.95-.095.096-.095.191-.19.286 0 .095 0 .19.095.285.095 0 .095.095.19.095h.666c.095 0 .285.095.285.285.095.285 0 .665.19.855.095.095.095.285.095.38v1.141c0 .19 0 .38.095.475.19.38.19.76.19 1.235v.951c0 .285 0 .665-.095.95-.095.19.095.38.19.57 0 0 .095.095.19.095h.57c.095 0 .095-.095.095-.095.095-.57.19-1.14-.095-1.615-.095-.095-.095-.285-.095-.381 0-.665 0-1.425 0-2.09 0-.285.285-.57.57-.57h1.901c.19 0 .38.095.665.19.095-.095.285-.19.476-.19.285-.096.475-.286.57-.571.095-.19.19-.285.285-.38.285-.19.665-.38 1.045-.475.285-.095.665-.095.855-.285.286 0 .476 0 .761-.095.76-.095 1.425.19 2.091.57.095 0 .19.095.285.19.285.285.57.57.855.855.095.095.19.191.19.191.285.665.855 1.045 1.235 1.52.191 0 .476.095.761 0 .38 0 .76.095 1.045.38.095.095.285.095.38.19h.665c.096 0 .191-.095.191-.19.095-.38.19-.855 0-1.235-.191-.38-.191-.761-.191-1.141 0-1.14 0-2.185 0-3.326 0-.855 0-1.805 0-2.661 0-.285 0-.57-.19-.855-.095-.19-.095-.38 0-.57s.19-.475.19-.666c0-.285 0-.665 0-.95 0-.095 0-.285.096-.38.285-.38.19-.855.19-1.331 0-.095 0-.19-.095-.285-.191-.38-.191-.76-.095-1.14 0-.19.19-.38.38-.475.38 0 .76-.285 1.14-.38.19 0 .475-.19.665 0 .095.095.285 0 .38 0h.856c.855 0 .95 0 1.52-.19.095 0 .19-.095.285-.095h2.186c.095 0 .285 0 .38.095.38.285.856.19 1.331.19.095 0 .19 0 .285-.095.19-.19.475-.19.665-.19h1.996c.285 0 .475.095.665.285s.38.285.665.285h.285c.191.095.476.285.476.475v1.045 13.4 7.413c0 .95 0 1.235 1.14.76.095 0 .19-.095.285-.095.095-.095.285-.095.38 0 .19.095.285.095.475.19.381 0 .666-.095.856-.475s.285-.665.285-1.045c0-3.707 0-7.318 0-11.024 0-1.426 0-2.756 0-4.182 0-.285 0-.475 0-.76 0-.19-.285-.38-.19-.57s.19-.476.285-.666c.095 0 .19 0 .285-.095.095 0 .095 0 .19-.095 0-.095.095-.095.095-.19.095-.57.38-.855.855-1.045.19-.095.381-.285.476-.475 0-.095.095-.19.19-.285s.19-.19.38-.19h.475 5.227c.285 0 .665 0 .95.19.095.095.285.095.38.095h5.037c.19 0 .38-.095.57-.19.095-.095.19-.191.381-.191h.285c.19.096.285.191.285.381v1.615.19c-.285.475-.19 1.046-.19 1.521v6.937c0 .38.095.856-.19 1.236v.855c0 .95 0 .76.855 1.14.19.096.38.191.38.381v.19c.095.475.285.665.76.665.19 0 .38 0 .475-.095.191 0 .286-.095.476-.19h2.566c.19 0 .38.095.475.19s.095.19.19.285c0 .38.095.76-.095 1.14-.095.095-.095.286-.095.476v3.326.285c0 .19.285.475.475.475h.095c.57 0 .665 0 .665.76 0 .476-.095.951.095 1.426.095 0 .19.095.285.095s.19 0 .285.095c.381.285.666.475.856.855.095.19.285.38.38.57.19.191.285.476.475.666.19.38.475.665.665 1.045.095.19.19.38.285.57.095.285.19.475.19.761v3.991.855c0 .095.095.285.286.285h1.805c.095 0 .19-.095.285-.095.476-.38 1.046-.475 1.711-.38h1.901c.19 0 .285-.095.38-.285 0-.38 0-.665 0-1.045 0-.761 0-1.521 0-2.281 0-.285-.095-.475-.285-.665-.095 0-.095-.095-.095-.19-.095-.095-.095-.285 0-.381.095-.095.19-.19.285-.285s.285-.19.38-.38c.19-.475.57-.76.855-1.045l1.806-1.806c.285-.285.665-.38.95-.57.095-.095.19 0 .285-.095.19 0 .38-.095.57-.095 0-.19.096-.38.096-.57 0-.38 0-.666 0-1.046s.285-.665.665-.665h1.14c.19 0 .38.095.57.095s.381-.095.571-.095c.285 0 .475 0 .665.19.095.095.285.095.38 0 .19-.095.38-.19.57-.19h1.046c.19 0 .475.285.475.475v.38 1.141c0 .285.095.475.19.665.19.19.285.475.475.665s.285.38.38.571c0 .095.095.19.19.285.475.38.665 1.045 1.141 1.425.095.095.095.285.19.38 0 .19.095.38.285.57.19.191.38.191.57.191h.665 7.223.665c.475 0 .76-.191.855-.571.095-.19.19-.19.285-.19h.096c.285 0 .57.285.855.285h.855c.19.19.475.476.665.666v1.615c0 .19.095.38.285.38h.476 5.607.475c.19 0 .285-.095.285-.285 0-.095 0-.285.095-.38.095-.19.285-.285.475-.285s.38 0 .475.19c.095.095.19.19.19.38.095.38.381.57.571.856v.855 3.421.76c0 .285.285.571.57.571h.76 2.376.855c.19.19.285.285.475.475.286.285.761.38 1.046.665h.19c.285-.095.57-.095.855-.095h.285c.475.285.951.19 1.426.285.38.095.76.19.95.665.095.19.285.38.475.57.19.191.476.381.571.761.095.19.285.285.38.475.285.285.57.475.665.855.38.475.665 1.046 1.14 1.426.285.19.285.475.285.76s0 .57-.19.76c-.095.19-.095.475-.19.666 0 .095-.095.19 0 .285.095.19.095.475.095.76v4.276c0 .286 0 .571-.095.951.095.095.19.285.38.38.095.095.286.095.381 0s.285-.19.38-.38h1.33c.19 0 .38.095.57.19.285.19.666.19.951 0 .19-.095.38-.19.665-.285h.285s.095 0 .095.095c.285.38.665.38 1.141.38h1.52c.285 0 .57 0 .76-.19.19-.095.38-.095.571-.095h3.326 1.045c.285-.285.57-.475.855-.76.191-.191.381-.476.761-.571.095 0 .19-.19.285-.285.285-.285.57-.665 1.045-.855.19-.095.285-.285.475-.38.285-.285.571-.665 1.046-.856.19-.095.285-.19.38-.38l.76-.76c.19-.19.38-.38.665-.475 0 0 .095 0 .095-.095.286-.19.476-.475.761-.665s.57-.38.855-.571c.475-.475 1.045-.855 1.616-1.235.38-.19.665-.57.855-1.045 0-.095 0-.095-.095-.19h-.095c-.665.285-1.426.57-1.996 1.045-.285.19-.57.38-.95.475-.095 0-.19 0-.285.095-.285.19-.476.475-.856.475-.285.095-.57.285-.855.38-.285.191-.665.286-.95.476-.285.095-.57.285-.856.475-.285.095-.475.285-.76.285-.19 0-.38.095-.57.19-.76.38-1.521.76-2.281 1.14-.285.095-.57.095-.76.285-.38.191-.76.381-1.236.571-.095 0-.095 0-.19.095-.19.19-.38.38-.665.475-.19.095-.475.095-.665.19s-.475.19-.57.38c-.19.285-.571.285-.761.475-.665.095-1.14.475-1.71.761-.19.095-.38.19-.57.285-.191.095-.286.095-.476 0 .285-.381.761-.666 1.236-.856s.855-.38 1.235-.76l.57-.285c.476-.19.856-.38 1.236-.76.095-.095.285-.095.38-.19.76-.381 1.616-.856 2.376-1.236.095-.095.285-.095.38-.19.285-.285.76-.475 1.14-.665 1.141-.57 2.186-1.141 3.327-1.711.665-.38 1.425-.665 2.09-1.045.666-.095 1.141-.57 1.711-.57.095 0 .19-.095.285-.095.19-.095.285-.19.475-.19.38-.191.761-.476 1.236-.571.38-.095.855-.095 1.33-.095.095-.095.19-.19.38-.285.19-.285.476-.475.856-.475.19 0 .285-.095.285-.19.19-.475.57-.665 1.14-.76.19 0 .285-.095.475-.19.19-.19.381-.381.571-.571s.285-.285.475-.38c.38-.19.665-.475.95-.76.095-.095.19-.19.19-.38.19-.38.475-.57.76-.855.095 0 .095-.095.191-.095.38-.096.57-.476.95-.571.095 0 .19-.095.285-.19.285-.38.76-.475 1.045-.855.38-.285.856-.38 1.141-.76.665-.285 1.235-.761 1.995-.856.286-.095.571-.285.856-.38.38-.19.665-.095.855.285.19.285.19.761-.095.951-.095.095-.285.285-.475.285s-.38 0-.475.095c-.19.095-.38.285-.571.38-.19.095-.475 0-.665.19-.095.095-.19.19-.19.19-.095.095-.19.095-.285.095-.38 0-.57.19-.76.38-.19.285-.475.38-.76.475-.191.095-.476.19-.571.571-.095.19-.285.285-.475.38-.285.095-.57.38-.76.665-.095.285-.285.475-.665.665-.19.095-.38.285-.38.57 0 .381-.191.571-.381.856s-.38.57-.57.855c-.38.285-.475.76-.665 1.14-.475.951-.95 1.806-1.331 2.756-.19.381-.475.666-.475 1.141-.19.38-.38.76-.57 1.235-.38.666-.665 1.331-1.045 1.996 0 .095-.095.095-.095.19-.095.57-.38 1.045-.666 1.521-.095.095 0 .38.19.38.096 0 .191.095.286.095h3.706c.095 0 .285 0 .38-.095.38-.19.76-.19 1.236-.19h12.829c.38 0 .855.095 1.236-.095h.19c.38.19.76.095 1.14.095h8.078c.475 0 .95 0 1.426.19.19.095.57.095.76-.095.475-.19.855-.19 1.33 0 .57.19 1.046.19 1.616 0 .285-.095.475-.19.665 0 .19.095.475.19.665.19h.856c.285 0 .475 0 .665-.19.285-.19.57-.19.76 0 .38.19.76.19 1.141.19h6.462 1.806c.38 0 .76 0 1.14.19.095.095.38.095.475.095h4.182c.285 0 .475 0 .665-.095.285-.19.665-.19.855 0 .285.19.57.19.951.19h5.892.76c.285 0 .475.095.665.19.095 0 .19.095.285 0 .285-.19.571-.19.856-.19h.475c.38 0 .665-.475.475-.855 0-.095-.095-.285-.19-.38.095-.191.19-.476.38-.761.095 0 .19-.095.285-.095h2.091.665c.095 0 .19 0 .19-.095.095-.285.38-.475.285-.855 0-.855.095-1.616-.095-2.471.095-.285.095-.665.38-.76.381-.19.666-.38 1.141-.38h1.045c.285 0 .475 0 .665.095.286.19.666.19.951 0 .38-.19.76-.095 1.14-.095s.856-.095 1.236.095h.095c.285.095.38 0 .38-.285 0-.286 0-.476 0-.761 0-.095 0-.285 0-.38 0-.19.19-.38.38-.475s.38 0 .38.19v.19.38c0 .951-.095.76.57 1.426.19.19.285.285.38.475 0 .475 0 .95.095 1.33 0 .095.095.285.286.285h2.185.19c.191 0 .381-.285.381-.475 0-.095 0-.285 0-.38 0-3.326 0-6.747 0-10.073 0-.286 0-.666-.191-.856-.095-.095-.19-.285-.285-.475-.19-.38.095-.855.476-.855h.38 6.177.285c.285 0 .475.19.38.475 0 .095 0 .285-.095.38-.19.285-.19.665-.19 1.045v1.616c0 .38.095.57.38.855.095.095.095.19.19.19.095.095.19.285.19.476v.855 6.652.951c0 .095.19.285.285.285h.666 1.235c.285.285.57.475.855.76.286 0 .666 0 1.046.095.19 0 .285.19.285.38v.95.761c0 .285.19.475.475.57.095 0 .19 0 .285.095.19 0 .19.19.285.285v.855c0 .761.38.951.951.951h.855v4.437c-170.302 0-340.698 0-511 0 0-2.946 0-5.673 0-8.619.0950344 0 .285103 0 .380138-.095.285103-.095.475172-.19.760272-.19h3.23117.85531c.38014 0 .66524-.19.76028-.57 0-.095 0-.285.09503-.38.19007-.285.38014-.38.66524-.19.28511.19.47517.475.47517.855 0 .19.09504.285.28511.285h.66524c.19007 0 .38014-.095.38014-.285 0-.285 0-.665 0-.95 0-1.996 0-3.992 0-5.892 0-.286 0-.571 0-.856s.2851-.57.5702-.57h.66524.66526c.095 0 .1901-.095.1901-.19s0-.19 0-.285c0-.38.2851-.665.3801-.95.095-.191.2851-.286.4752-.381.095 0 .2851-.095.2851-.285.2851-.38.8553-.57 1.2354-.95.095-.095.1901-.095.2851-.095h.8553 4.8468.8553c.2851 0 .5702-.285.6652-.57 0-.095 0-.19.0951-.285 0-.095.095-.19.19-.285.0951-.096.1901-.096.2851 0 .0951.095.2851.285.2851.475v1.14.855c0 .19.2851.476.4752.476h2.0908c.19 0 .3801-.191.4751-.381.0951-.095.0951-.285.0951-.38.095-.285.2851-.475.5702-.475h.6652c.0951 0 .1901-.095.2851-.19.0951-.19.2851-.285.4752-.285h.9503 4.5617c.1901 0 .3801 0 .5702-.095.095 0 .095-.095.095-.19s.0951-.19.0951-.285c0-.475.095-.856.2851-1.141.095-.095.19-.285.3801-.38.4752-.19.6653-.57.6653-1.045 0-.285 0-.475 0-.76 0-2.281 0-4.562 0-6.843 0-.285 0-.57 0-.855s.3801-.475.5702-.475c.2851 0 .5702.19.5702.475v.665 3.041c0 .095 0 .285.095.38 0 .19.2851.285.4752.285.095 0 .095-.095.19-.095.1901-.095.2851-.19.2851-.38 0-.095 0-.19 0-.285 0-.19.0951-.285.2851-.38h.9504 4.7517c.1901 0 .3801 0 .5702-.095.2851-.38.4752-.76.3802-1.236 0-.19.095-.38.19-.57.1901-.19.2851-.38.2851-.665.0951-.38.2851-.57.6653-.57h.8553 3.7063.8553c.2851-.285.6653-.57 1.1404-.76.2851-.096.5702-.286.8554-.381.095-.095.2851-.285.2851-.38 0-.285 0-.475 0-.76 0-2.281 0-4.467 0-6.747 0-2.376 0-4.752 0-7.033 0-.38-.0951-.76-.3802-1.045l-.095-.095c0-.095 0-.191 0-.286.095-.19.2851-.38.4752-.57.4751-.19.8553-.57 1.3304-.76.1901-.095.3802-.19.6653-.38.3801-.285.8553-.57 1.4255-.475h1.3305c.19 0 .3801-.095.3801-.285.1901-.381.3801-.571.8553-.476h4.6567c.2851 0 .4752.095.6652.285.1901.191.3802.191.6653.191h3.4212c.2851 0 .5702-.095.8553-.191.1901-.095.4752-.19.6653-.285h1.2354c.0951 0 .2851.095.3802.19.095.095.095.191.19.286.0951.285.3802.475.6653.57.2851 0 .2851.095.2851.285v.95 5.892c0 .476.095.856.2851 1.141.19.285.3801.38.6652.38h1.5206c.2851 0 .5702.285.5702.475v.76c0 .19 0 .38.095.571 0 .095.095.095.095.095.3802.095.6653.095.9504-.19.2851-.191.4752-.476.8553-.571.1901-.095.2851-.19.3801-.38 0-.285 0-.57 0-.855 0-2.471 0-4.942 0-7.508 0-.19 0-.38 0-.665 0-.095 0-.285-.095-.38-.1901-.285-.1901-.475-.1901-.761 0-.665 0-1.33 0-1.995 0-.38 0-.76-.19-1.141-.0951-.095 0-.38-.0951-.475 0-.19.0951-.38.2851-.38h1.8057c1.3305 0 1.2354.095 1.2354-1.235 0-.095 0-.19 0-.285v-.096c0-.095.1901-.285.3802-.285.095 0 .3801.19.3801.285v.666.76c0 .095.095.285.1901.38.19.19.5702.285.8553.38h1.3305c.19 0 .4751-.285.4751-.475 0-.475 0-.855 0-1.33 0-.19 0-.381.0951-.476 0-.095.19-.19.2851-.095.095.095.19.095.2851.19.19.191.19.286.095.476 0 .095-.095.19-.1901.285-.095.665-.095 1.33.3802 1.9.095.191.2851.286.3801.476h.6653 1.4255c.3801 0 .4752.285.3801.57 0 .095-.095.19-.1901.285-.095.285-.095.57 0 .855.1901.285.2852.57.4752.951.0951.095.2851.19.4752.19.095 0 .2851-.19.2851-.285s0-.286 0-.381c.095-.38.2851-.57.5702-.57h.6652 4.0865.8553c.1901 0 .2851-.095.3802-.285 0-.285 0-.475.095-.76 0-.095.1901-.19.2851-.19.2851 0 .3801.095.3801.38v.665c0 .095.1901.285.2851.285h.7603 2.661c.2851 0 .5702 0 .76.19.095.095.285.095.38.095h.666c.285.285.665.571 1.14.475.095 0 .095.096.19.096.19.285.285.57.475.95.38.285.38.665.38 1.14 0 .38-.095.666.095 1.046-.095.19-.095.38-.19.57s-.19.475-.285.665c-.095.285.095.475.095.665v.761 3.706.76.285c0 .095.19.285.285.285h2.471c.095 0 .285-.095.38-.19.286-.285.571-.38.951-.38h.855c.285 0 .57.285.57.665v.191c-.285.38-.095.665 0 .95s.19.475.38.76c0 .095.095.19 0 .285-.19.57-.095 1.046-.095 1.616.095.095.19.19.286.285.285.285.475.475.855.19h.475c.19 0 .285.095.475 0 .095-.095.285-.095.38 0s.285.095.38.19c.286.095.571-.095.666-.38.095-.19 0-.475-.095-.665-.38-.38-.856-.856-1.236-1.236-.095-.095-.19-.285-.095-.475 0-.095.095-.285.285-.285h.761 7.697.666c.19 0 .285.19.285.38s0 .38-.19.475c-.381.38-.856.856-1.236 1.236-.095.095-.19.285-.285.38v.285c.095.095.285.19.475.285s.475.095.665 0c.191-.095.381-.19.571-.19h5.417c.19 0 .38 0 .475.095.475.19.855.095 1.235-.095.19-.095.285-.19.38-.475 0-.475-.095-.855.19-1.331.096-.095 0-.285 0-.38 0-.285 0-.475 0-.76 0-.095 0-.285.096-.38.19-.285.19-.57.19-.951 0-.38 0-.665 0-1.045 0-.19 0-.38.095-.475.095-.19.19-.38.19-.57s0-.38 0-.475c0-.286 0-.571.19-.761.19-.285 0-.57.095-.95.095-.285.285-.665.19-.95 0-.476 0-1.046 0-1.521 0-.19 0-.38.095-.475.285-.38.19-.855.19-1.331 0-.095-.095-.285-.19-.38s-.19-.285-.38-.38c-.19-.19-.19-.38-.19-.57 0-.76 0-1.521 0-2.281 0-.19.095-.285.285-.38.285-.095.38-.19.38-.475 0-.856 0-1.711 0-2.566 0-.095 0-.285-.095-.38-.19-.38-.19-.761-.19-1.141 0-.475.095-.855-.19-1.33-.095-.095 0-.285 0-.38 0-.285 0-.571 0-.856 0-.38 0-.76-.19-1.14-.19-.285 0-.475.38-.57.19 0 .285-.095.285-.285 0-.476 0-1.046 0-1.5209 0-.095 0-.2851-.095-.3801-.095-.1901-.19-.4752-.19-.6653 0-.3801 0-.7603 0-1.1404 0-.2851 0-.5702-.19-.9503-.095-.0951-.095-.3802-.095-.4752 0-.2851 0-.6653 0-.9504 0-.3801.095-.8553-.19-1.2354-.095-.095-.095-.2851-.095-.3801 0-.3802 0-.8554 0-1.2355 0-.1901 0-.3801 0-.6652-.19-.2851 0-.5702.095-.7603s.19-.3801.38-.4752c.095-.095.095-.2851 0-.3801-.095-.1901-.19-.3802-.19-.5702 0-.3802 0-.8553 0-1.2355 0-.19 0-.3801-.095-.4751-.19-.2851-.19-.5702-.19-.9504 0-.3801 0-.8553 0-1.2354 0-.2851 0-.5702-.19-.8553-.095-.0951-.095-.2851-.095-.3802 0-.3801 0-.6652 0-1.0454-.096-.6652.095-1.1404.57-1.5205 0 0 0-.095.095-.095 0-.0951-.095-.2851-.095-.4752s0-.3802 0-.6653c0-.4751 0-.8553 0-1.3304 0-.1901 0-.3802-.095-.4752-.19-.2851-.19-.5702-.19-.7603 0-.6652 0-1.4255 0-2.0907 0-.1901 0-.3802-.095-.4752-.19-.2851-.19-.4752-.19-.7603 0-.6652.095-1.2354-.096-1.8056.191-.2851.476-.4752.666-.7603 0-.5702.19-1.2355-.19-1.8057-.095-.095-.095-.3801-.095-.4751 0-.6653 0-1.2355 0-1.9007 0-.1901 0-.3802-.095-.4752-.19-.2851-.19-.4752-.19-.7603 0-.6652 0-1.3305 0-1.9957 0-.1901 0-.3801-.096-.5702-.285-.3801-.19-.7603-.095-1.2355.191-.095.381-.19.476-.3801.095-.095.19-.1901.19-.1901.095-.4751.19-.8553 0-1.3304-.095-.2852-.19-.5703-.19-.7603 0-.6653 0-1.3305 0-1.9957 0-.1901 0-.4752-.095-.5702-.19-.2852-.19-.4752-.19-.7603 0-.4752 0-.9504 0-1.4255 0-.2851 0-.5702 0-.8553 0-.2852-.191-.5703-.191-.8554-.095-.19 0-.3801.191-.4751.38-.1901.57-.4752.57-.8553 0-.3802 0-.7603-.19-1.1405-.095-.095-.095-.2851-.095-.3801 0-.3801 0-.7603 0-1.1404 0-.2851 0-.4752-.19-.6652-.095-.0951-.095-.2852-.095-.4752 0-.6653 0-1.2355 0-1.9007 0-.1901 0-.4752-.096-.5702-.095-.2851-.19-.5702-.19-.7603 0-.3801 0-.6652-.19-1.0454-.095-.095 0-.3801.19-.4751.095-.0951.286-.0951.381-.1901.38-.095.38-.1901.38-.4752 0-.3801 0-.7603 0-1.1404 0-.095 0-.2851-.095-.3801-.19-.2851-.19-.4752-.19-.7603 0-.3801 0-.8553 0-1.2355 0-.19 0-.3801-.095-.4751-.191-.2851-.191-.6653-.191-.9504 0-.5702 0-1.1404 0-1.8056 0-.1901 0-.3802 0-.4752-.19-.3801-.19-.7603-.285-1.1404 0-.1901-.19-.2851-.19-.4752-.095-.2851.19-.6652.475-.6652.381 0 .761-.1901 1.236-.2851.38-.0951.76-.3802 1.235-.2851.285-.1901.666-.1901.951-.3802.285-.095.475-.5702.285-.8553-.095-.095-.19-.2851-.38-.3801.095-.095.19-.1901.285-.3801.095-.0951.19-.1901.19-.3802.095-.4752.38-.8553.285-1.4255 0-.1901.095-.3801.285-.5702.095-.095.285-.095.38-.095 0 0 .095 0 .095.095 0 0 .095 0 .095.095.285.0951.475 0 .475-.19 0-.6653 0-1.4256 0-2.0908 0-.4752.095-.9503-.19-1.4255-.095-.0951 0-.2851 0-.3802 0-.3801 0-.6652-.095-1.0453-.095-.3802-.285-.6653-.475-1.0454-.095-.1901-.19-.2851-.285-.4752 0-.095.095-.1901.095-.2851.095-.1901.095-.2851 0-.4752-.095-.095-.095-.19-.095-.2851 0-.3801 0-.7602 0-1.1404 0-.095.095-.095.095-.19.19-.1901.095-.3802 0-.5702-.19-.2852-.19-.4752.095-.7603.095-.0951.19-.1901.285-.2851.095-.0951.285-.1901.475-.1901h.286c.38 0 .57-.2851.57-.5702 0-.7603 0-1.6156 0-2.3759 0-.095-.095-.2851-.19-.3801s-.19-.1901-.285-.2851c-.191-.2851-.095-.5702.19-.6652.19-.0951.38-.2851.57-.2851.285 0 .38-.1901.57-.3802.19-.2851.19-.4752.19-.7603 0-1.4255 0-2.85099 0-4.27651 0-.38014.095-.85531-.19-1.23545-.095-.09503-.095-.2851-.095-.38013 0-1.04538 0-2.1858 0-3.23117 0-.28511 0-.47518.19-.66525.095-.19006.095-.38013 0-.5702-.19-.28511-.19-.66524-.19-1.04538 2.186-.85531 2.661-.85531 3.136-.85531zm306.296 162.604h.76c.285 0 .475-.19.666-.19h.38 2.09c.286 0 .476 0 .666.19.285.19.57.19.855 0 .19-.095.475-.19.665-.19h4.562.19c.095 0 .19 0 .285.095.38.38.95.475 1.235.95h1.331c.19 0 .38 0 .475-.095.19-.095.475-.19.665-.19.285 0 .571 0 .856-.095s.57-.19.95-.19h3.421c.475 0 .951-.095 1.426.19.095.095.19 0 .285 0h.76c.38 0 .665 0 .951-.19.475 0 .855-.38 1.33-.285.285 0 .665-.285.665-.665 0-.095 0-.19 0-.285 0-.381 0-.666.19-.951 0 0 0-.095 0-.19-.095-.19-.285-.38-.57-.38-.665 0-1.425.095-1.996-.19-.095 0-.19 0-.285 0-.285 0-.57 0-.855 0-6.272 0-12.45 0-18.722 0-.665 0-1.33.095-1.901-.19-.285 0-.665 0-.95 0-9.693 0-19.387 0-29.08 0-.285 0-.571 0-.856 0s-.475.19-.57.38c-.19.475-.475.95-.665 1.426 0 .095-.095.19-.095.285s0 .19.095.19c.38.095.76.19 1.14 0 .19-.095.475-.19.666-.19h1.235c.38.285.855.19 1.33.19.191 0 .286.095.476.095.285.095.57.38.855.57.095.095.285.285.38.285.285 0 .475.19.76.285h.951.665c.285 0 .57 0 .95-.19.095-.095.38-.095.475-.095h1.616c.285-.285.57-.57.855-.76.285-.285.571-.38 1.046-.285.285.095.57 0 .855 0h3.516c.095.095.19.095.19.19.285.285.571.38.951.38.095 0 .285.095.38.095.38.19.665.285 1.045.475.19.095.38.095.57 0 .286-.19.666-.19.951 0 .095.095.19.095.285.095.285.19.665.285 1.045.285h6.273.57c.285-.475.475-.665.76-.855zm-35.163-5.037h2.376c.19 0 .285-.095.475-.19.19-.19.38-.38.475-.57.191-.475.476-.856.666-1.331.285-.285.38-.665.57-.95.095-.095.095-.285.19-.38.19-.19.285-.57.475-.76.19-.286.38-.571.38-.951 0-.095.095-.095.095-.19.38-.285.476-.665.666-1.045.095-.285.285-.57.475-.761.285-.38.475-.76.76-1.14.19-.19.19-.38.285-.665 0-.095 0-.095 0-.19s-.095-.19-.19-.19c-.19.095-.475.095-.665.285s-.38.38-.57.57-.381.38-.476.57c-.19.285-.475.19-.665.475-.285.285-.57.571-.95.761-.285.19-.475.475-.665.665s-.476.38-.761.57-.475.38-.76.57c-.285.095-.475.38-.665.57-.095 0-.095.096-.19.096-.285.095-.475.285-.665.475-.191.19-.381.475-.666.57s-.57.285-.76.57-.57.285-.76.475c-.285.285-.475.475-.761.761l-.095.095c-.38 0-.57.475-.95.57-.19.095-.285.285-.475.38-.19.19-.095.475.19.57s.57.095.855 0c.285-.19.475-.19.761-.19.665-.095 1.33-.095 1.995-.095zm.095 3.896c.285-.38.761-.57 1.141-.76.19-.095.285-.285.285-.475 0-.095 0-.285 0-.38 0-.19-.38-.475-.57-.38-.285.19-.666.19-1.046.19-1.52 0-3.041 0-4.561 0-.286 0-.571 0-.856 0-.38 0-.665.475-.475.855.19.475.475.95 1.045 1.236h2.852c.285 0 .57 0 .855-.19.095-.096.285-.096.38-.096z" fill="#1a683b"/></svg>