<svg enable-background="new 0 0 592 321" viewBox="0 0 592 321" xmlns="http://www.w3.org/2000/svg"><g fill="#2f5302"><g opacity=".5"><path d="m90.7 181.5c-.3-.2-.2-.4-.2-.7 0-5-3.5-9.3-8.2-10.4-.8-.2-1.5-.8-1.9-1.5-1.4-2.4-3.8-4.2-6.6-4.8 4.7-.9 9.2 1.7 10.9 6 5.5.6 9.8 5.5 9.5 11.2 4.5 2.2 5.3 8.3 1.6 11.6.2 1.2.2 2.3 0 3.4-.3-.1-.5-.1-.8-.1-.5-1.4-1.5-2.6-2.8-3.3 3.5-3.2 2.8-9-1.5-11.4z"/><path d="m65 257h19.3c.8 0 1.4-.6 1.4-1.4s-.6-1.4-1.4-1.4h-19.3c-.8 0-1.4.6-1.4 1.4s.6 1.4 1.4 1.4z"/><path d="m62.1 219.3c.3-.2.7-.4 1-.5 5.5-.9 9.7-5.8 9.6-11.6 0-2.6 2.2-3 2.2-6.7 0-2.7-1.5-5-3.7-6.2-.1-.1-.2-.2-.2-.4.1-4.9-3.2-9.4-8.1-10.6-.8-.2-1.5-.7-1.9-1.5-1.3-2.3-3.5-4.1-6.2-4.7 4.7-1.1 9.5 1.5 11.2 5.9 5.5.6 9.7 5.5 9.4 11.2 1.5.7 2.7 2 3.4 3.6-1.9 1.5-3 3.7-2.9 6.3-3.1 1.5-3.7 5.7-1.1 8-.1.8-.1 1.5 0 2.3-1.8 2.4-4.6 4.1-7.8 4.5-2.9 2.8-8 3.6-12.2 3.2 3-.4 5.5-1.4 7.3-2.8z"/><path d="m466.2 296c-85.2 3-130.8 24-234.8 22-100.9-1.9-90.6-61-149.8-63.8-1.1-5.1-1.8-13.2-2.2-17.8 0-.6.2-1.1.6-1.5 4.2-3.5 7.2-8.5 8.8-11.3 2.6 0 5.2-.8 6.8-2.3 4.5-.5 7.7-4.7 7.1-9.2 2.5-2.3 2-6.5-1.1-8.1.2-3.7-2.3-6.9-5.9-7.7.1-1.1.2-2.2 0-3.3 3.7-3.3 2.9-9.4-1.6-11.6.3-5.7-3.9-10.6-9.5-11.2-3.2-8.2-14.9-8.2-18 0-3.9.5-7.2 3.2-8.7 6.7-4-.4-8.3 1.6-10 6.1-5.5.6-9.7 5.4-9.4 11.2-4.5 2.2-5.3 8.2-1.6 11.5-1 6.5 3.7 12.4 10 13.1 3.6 3.4 10.7 4.2 15.9 2.3l7.9 7.7c.5.5.8 1.3.8 2-.2 5.7-.8 15.5-4.5 23.7-30.2 2.5-67.1 15-67.1 15v51.5h591.5c-15.4-13.3-57-27.3-125.2-25zm-386.2-67.5h-.1-.1-.1-.1-.1-.1-.1s-.1 0-.1-.1c0 0-.1 0-.1-.1 0 0-.1-.1-.1-.1s0 0-.1-.1c0 0 0-.1-.1-.1 0 0 0 0 0-.1s0-.1 0-.2c-.1-1.3-.1-2.4-.2-3.5-.1-1.5-.1-2.8-.2-4.1 1 .6 2 1 3.2 1.1.8.8 1.9 1.4 3.1 1.7-1.1 1.7-2.7 3.7-4.6 5.3 0 .2 0 .2-.1.3zm-12.3-9.8c1.8-.3 3.5-1.1 4.9-2.2v5.7c0 .5-.6.8-1 .4z"/><path d="m91.6 221.7c.3-.2.6-.4 1-.4 3.9-.7 6.7-4.2 6.6-8.2 0-.6.2-1.2.5-1.6 1.8-2.4 1.1-5.8-1.5-7.3-.2-.1-.3-.3-.3-.5 0-3.5-2.4-6.5-5.7-7.3-.6-.1-1-.5-1.3-1-.9-1.5-2.4-2.7-4.1-3.2 3.5-1 6.9.9 8.2 4 3.9.5 6.8 3.9 6.6 7.8 3.1 1.6 3.6 5.8 1.1 8.1.6 4.5-2.6 8.7-7.1 9.2-2.1 2-5.8 2.6-8.8 2.2 1.9-.3 3.6-.9 4.8-1.8z"/></g><g opacity=".5"><path d="m160.6 198c.2 0 .4 0 .7.1h.2c.2 0 .5.1.7.1h.1c.3 0 .6.1.8.1-4.8 1-9.3 4.3-12.1 8.5-2 3-5.4 4.7-9 4.4 0 0 0 0-.1 0 2.1-7.7 9.2-13.3 17.5-13.3h.9c.1.1.2.1.3.1z"/><path d="m117.8 236c-1.3-2.5-2-5.3-2-8.4 0-10.1 8.2-18.2 18.2-18.2 1.2 0 2.5.1 3.6.4-8.3 1.7-14.6 9-14.6 17.8 0 3 .7 5.9 2 8.4-7.3 3.1-12.5 10.4-12.5 18.8 0 11 8.6 19.9 19.5 20.4 1.2 4.5 5.4 8 10.7 9.2-1.2.3-2.4.4-3.6.4-7 0-12.8-4.1-14.3-9.6-10.8-.5-19.5-9.4-19.5-20.4 0-8.4 5.2-15.7 12.5-18.8z"/><path d="m172.5 278.3c1.6 2.8 8.4 5.9 11 6.1-.3.1-.6.1-.8.2 0 0 0 0-.1 0-.3 0-.6.1-.9.1-.3 0-.5 0-.8.1-.1 0-.1 0-.2 0-.3 0-.6 0-.8 0-3.6 0-6.9-1.1-9.5-2.9l-.4-.3 2.3-3.7z"/><path d="m163 212.3c5.1 0 9.5 3 11.5 7.4 2.1-1.5 4.6-2.3 7.3-2.3 7 0 12.6 5.7 12.6 12.6 0 2.3-.6 4.5-1.7 6.3 6.1.9 10.7 6.2 10.7 12.5 0 7-5.7 12.6-12.6 12.6-7 0-40.4-29.6-40.4-36.5-.1-6.9 5.6-12.6 12.6-12.6z"/></g><path clip-rule="evenodd" d="m409 295.7c-85.1 3-131.1 23.6-233.8 22.1-5.6-7.2-7.1-15.9-8.2-25.1-.4-2.7.2-5.5 1.6-7.8l1.8-3c2.6 1.8 5.9 2.9 9.5 2.9 7 0 12.8-4.1 14.3-9.6 10.8-.5 19.5-9.4 19.5-20.4 0-8.5-5.1-15.7-12.5-18.8 1.3-2.5 2-5.3 2-8.4 0-10.1-8.2-18.2-18.2-18.2-2.9 0-5.6.7-8 1.8-2.1-7.7-9.2-13.3-17.5-13.3s-15.4 5.6-17.5 13.3c-2.4-1.2-5.1-1.8-8-1.8-10.1 0-18.2 8.2-18.2 18.2 0 3 .7 5.9 2 8.4-7.3 3.1-12.5 10.4-12.5 18.8 0 11 8.6 19.9 19.5 20.4 1.5 5.5 7.3 9.6 14.3 9.6 4 0 7.5-1.3 10.2-3.4 0 0 .1 0 .1.1l1 1.6c1.4 2.3 2.1 5 1.9 7.7-.8 9.1-2.2 17.7-7 25.1-67.2-9.5-70.6-48.7-111.4-59.4-.4-1.8-1.9-3.1-3.8-3.1h-7.6c-3.2-14.4-5.2-37.3-6.1-50.2-.1-1.6.5-3.1 1.7-4.1 11.6-9.7 20.2-23.8 24.7-31.7 2.8 0 5.7-.4 8.3-1 4.1-1 7.9-2.8 10.8-5.4 11.8-1.4 20.5-11.7 20-23.5 0-.8-.1-1.6-.2-2.4.9-.8 1.6-1.7 2.3-2.7 1.5-2.3 2.3-5 2.3-7.7 0-5-2.6-9.9-7.6-12.5.1-3.2-.4-6.3-1.6-9.1-2.6-6.2-8-10.9-14.8-12.5.4-3 .4-6.1 0-9.2 4.4-4 6.6-9.4 6.6-14.7 0-7.1-3.8-14.2-11-17.8.5-9.5-3.5-18.1-10-24-4.5-4-10.2-6.7-16.6-7.5 0-.1-.1-.1-.1-.2-3.4-8.4-9.8-13.7-17.1-15.9-4.2-1.4-8.8-1.7-13.4-.8h.1c-.3.1-.5.1-.8.2v254.3 66h535c-15.7-13.3-57.2-27.7-126-25.3zm-394-115.8s0-.1-.1-.1c-.1-.3-.2-.6-.2-.9-.5-8.5-.7-15.1-1-21.2 2.7 1.6 5.7 2.7 9 3.1 2.3 2.2 5.4 3.8 8.8 4.9-3.2 4.8-7.5 10.4-13 14.9-.1.1-.3.2-.5.3-1 .5-2.4.1-3-1z" fill-rule="evenodd"/></g></svg>