<svg fill="none" height="52" viewBox="0 0 691 52" width="691" xmlns="http://www.w3.org/2000/svg"><g fill="#1a683b"><path d="m0 7v44.9998h528s-103.32-43.08631-177.68-46.4952c-74.359-3.40888-89.231 46.02-186.289 39.2022-65.0732-4.571-76.531-29.7071-112.031-40.20715-35.5-10.5-52 2.50035-52 2.50035z" opacity=".3"/><path d="m229.161 24.8947c-64.418 3.4682-200.161 27.1053-200.161 27.1053h662s-81.358-16.434-139.752-17.7679-70.073 18.0078-146.292 15.34-95.274-29.0126-175.795-24.6774z"/><path d="m445.039 1.21518c63.639 5.78029 172.457 36.33412 197.961 50.78482h-643v-10s69.1559-22.9993 126.844-25.2225c57.688-2.2232 69.226 30.013 144.524 25.5666 75.298-4.4463 94.122-48.35427 173.671-41.12892z" opacity=".6"/></g></svg>