<svg fill="none" height="64" viewBox="0 0 64 64" width="64" xmlns="http://www.w3.org/2000/svg" xmlns:xlink="http://www.w3.org/1999/xlink"><clipPath id="a"><path d="m0 0h64v64h-64z"/></clipPath><g clip-path="url(#a)"><path d="m63.938 4.32167c-.166-.32459-.6022-.36208-.916-.36208-1.0871 0-3.2147.55686-6.4349 1.39982l-1.0519.27494c-4.889 1.27535-9.571 4.88345-11.5704 6.42405-.0259.0202-.0519.04-.0774.0597 1.8234-2.38076 6.6482-9.72913 6.2469-10.58208-.0446-.09481-.1321-.1493-.2397-.1493-.4403 0-.9298.48388-1.8188 1.36217-1.2661 1.25119-3.3853 3.34534-7.2069 5.86206-2.4527 1.61515-5.0989 3.92385-7.4333 5.96075-2.9969 2.615-5.8279 5.0849-7.1651 5.0849-.2508 0-.4367-.0897-.5685-.2741-1.7363-2.4308-3.522-3.7388-5.3074-3.8876-.3784-.0315-.7695-.0641-1.1672-.0641-1.4973 0-3.1907.4129-5.4232 3.4075-.4963.6658-5.30684 1.215-8.81914 1.6161-1.86505.2129-3.47599.3969-4.331777.5722-.466553.0956-.6720022.1459-.65250702.3391.01899532.1868.19778502.2024.74548402.2024.66317 0 1.85721-.0505 3.23987-.109 2.11015-.0891 4.73618-.2002 6.96017-.2002 2.3929 0 3.8594.1313 4.3584.3899 1.932 1.0019 4.7728 4.7276 7.2369 9.4916 2.3914 4.6227 8.5082 9.5202 12.3796 10.8109 2.9615.9871 3.4295 3.6138 4.1378 7.5898.1807 1.0134.3855 2.162.6504 3.367.8888 4.0399 1.388 4.5846 1.7591 4.5846.3202 0 .526-.4101.6676-1.3296.0199-.1289.0355-.2509.048-.3655 1.3319 4.6403 2.0294 5.2384 2.4884 5.2384.098 0 .1855-.0429.2463-.1209.2729-.3502.0015-1.4997-.4639-3.3466-.2431-.9645-.568-2.2543-.523-2.6304.369.3566 1.3644 2.2016 2.1058 3.5756 1.6862 3.1259 2.2732 4.0992 2.6588 4.0992.0445 0 .0875-.0118.125-.0343.4041-.2426.019-1.346-1.1009-4.2058-.5895-1.5055-1.1989-3.0614-1.2652-3.7339.3404.2534 1.1809 1.3365 1.8116 2.1494 1.3075 1.6849 1.9158 2.4234 2.2554 2.4233.0745 0 .1415-.0307.1885-.086.0748-.0883.0919-.2268.0551-.4491-.1519-.9212-1.3873-3.7371-2.6955-6.7183-1.1216-2.5562-2.2813-5.1996-2.5559-6.242-.6027-2.2906-4.1193-10.9678-5.1824-13.094-.7068-1.4136 1.8956-3.0356 3.7956-4.2199.8341-.5199 1.5545-.969 1.9267-1.341.6002-.6002 1.2662-.8961 1.9713-1.2096.702-.3119 1.4277-.6345 2.0717-1.2783.8648-.865 1.0104-1.5928 1.1512-2.2966.0693-.3468.1348-.6742.2835-1.0209.1951-.4551.8524-.7172 1.5486-.9946.8156-.3251 1.7401-.6937 2.1759-1.4782.3061-.5508.4904-1.2012.6689-1.8302.2639-.9313.5134-1.811 1.0972-1.978 1.1207-.3203 2.889-1.4343 3.2236-2.5214l.0556-.1828c.3256-1.072 1.0879-3.58244 2.9814-6.20396.6346-.87929.8305-1.40116.6546-1.74507z" fill="#2a4b01"/></g></svg>